<svg version="1.1" xmlns="http://www.w3.org/2000/svg" xmlns:xlink="http://www.w3.org/1999/xlink" width="958" height="701"><desc>title%20YANG%20PATCH%0Aparticipant%20REST%20Client%0Aparticipant%20REST%20Server%0Aparticipant%20Translib%20API%0Aparticipant%20App%20module%0Aparticipant%20DB%20Layer%0Adatabase%20Redis%0A%0AREST%20Client%20-%3EREST%20Server%3A%20Edit%20Request%0AREST%20Server%20-%3ETranslib%20API%3A%20Invokes%20Translib.Bulk%0ATranslib%20API%20-%3EApp%20module%3AInit()%2C%20translate()%2C%20process()%0AApp%20module%20-%3EDB%20Layer%3A%20SetAPIS()%0ADB%20Layer%20-%3ERedis%3A%20doCvl()%2C%20DbAPIs()%0ADB%20Layer%20%3C--Redis%3A%0AApp%20module%20%3C--DB%20Layer%3A%0ATranslib%20API%20%3C--App%20module%3A%0AREST%20Server%20%3C--Translib%20API%3ATranslib.BulkResponse%0AREST%20Client%20%3C--REST%20Server%3AEdit%20Response%0A</desc><defs/><g><g/><g/><g/><g/><g/><g/><g/><g/><g/><g/><g><rect fill="white" stroke="none" x="0" y="0" width="958" height="701"/></g><g><text fill="black" stroke="none" font-family="sans-serif" font-size="16.5pt" font-style="normal" font-weight="normal" text-decoration="normal" x="410.11233863357165" y="26.3876361" text-anchor="start" dominant-baseline="alphabetic" xml:space="preserve">YANG PATCH</text></g><g/><g><path fill="none" stroke="black" paint-order="fill stroke markers" d=" M 68.20862670214453 138.798965886 L 68.20862670214453 701.735202686" stroke-miterlimit="10" stroke-width="1.4659797833333332" stroke-dasharray="13.532121076923076,5.863919133333333"/><path fill="none" stroke="black" paint-order="fill stroke markers" d=" M 210.46711721998307 138.798965886 L 210.46711721998307 701.735202686" stroke-miterlimit="10" stroke-width="1.4659797833333332" stroke-dasharray="13.532121076923076,5.863919133333333"/><path fill="none" stroke="black" paint-order="fill stroke markers" d=" M 407.58598981789976 138.798965886 L 407.58598981789976 701.735202686" stroke-miterlimit="10" stroke-width="1.4659797833333332" stroke-dasharray="13.532121076923076,5.863919133333333"/><path fill="none" stroke="black" paint-order="fill stroke markers" d=" M 627.1958597302696 138.798965886 L 627.1958597302696 701.735202686" stroke-miterlimit="10" stroke-width="1.4659797833333332" stroke-dasharray="13.532121076923076,5.863919133333333"/><path fill="none" stroke="black" paint-order="fill stroke markers" d=" M 752.636008947547 138.798965886 L 752.636008947547 701.735202686" stroke-miterlimit="10" stroke-width="1.4659797833333332" stroke-dasharray="13.532121076923076,5.863919133333333"/><path fill="none" stroke="black" paint-order="fill stroke markers" d=" M 914.4005572046433 138.798965886 L 914.4005572046433 701.735202686" stroke-miterlimit="10" stroke-width="1.4659797833333332" stroke-dasharray="13.532121076923076,5.863919133333333"/></g><g><path fill="none" stroke="none"/><g><path fill="white" stroke="black" paint-order="fill stroke markers" d=" M 8.795878699999996 91.301220906 L 127.62137470428905 91.301220906 L 127.62137470428905 138.798965886 L 8.795878699999996 138.798965886 L 8.795878699999996 91.301220906 Z" stroke-miterlimit="10" stroke-width="2.814681184" stroke-dasharray=""/></g><g><g/><text fill="black" stroke="none" font-family="sans-serif" font-size="11pt" font-style="normal" font-weight="normal" text-decoration="normal" x="27.882935478999997" y="121.207208486" text-anchor="start" dominant-baseline="alphabetic" xml:space="preserve">REST Client</text></g><path fill="none" stroke="none"/><g><path fill="white" stroke="black" paint-order="fill stroke markers" d=" M 148.20541597076823 91.301220906 L 272.7288184691979 91.301220906 L 272.7288184691979 138.798965886 L 148.20541597076823 138.798965886 L 148.20541597076823 91.301220906 Z" stroke-miterlimit="10" stroke-width="2.814681184" stroke-dasharray=""/></g><g><g/><text fill="black" stroke="none" font-family="sans-serif" font-size="11pt" font-style="normal" font-weight="normal" text-decoration="normal" x="167.29247274976822" y="121.207208486" text-anchor="start" dominant-baseline="alphabetic" xml:space="preserve">REST Server</text></g><path fill="none" stroke="none"/><g><path fill="white" stroke="black" paint-order="fill stroke markers" d=" M 348.84612389583333 91.301220906 L 466.32585573996613 91.301220906 L 466.32585573996613 138.798965886 L 348.84612389583333 138.798965886 L 348.84612389583333 91.301220906 Z" stroke-miterlimit="10" stroke-width="2.814681184" stroke-dasharray=""/></g><g><g/><text fill="black" stroke="none" font-family="sans-serif" font-size="11pt" font-style="normal" font-weight="normal" text-decoration="normal" x="367.93318067483335" y="121.207208486" text-anchor="start" dominant-baseline="alphabetic" xml:space="preserve">Translib API</text></g><path fill="none" stroke="none"/><g><path fill="white" stroke="black" paint-order="fill stroke markers" d=" M 568.9892732271485 91.301220906 L 685.4024462333907 91.301220906 L 685.4024462333907 138.798965886 L 568.9892732271485 138.798965886 L 568.9892732271485 91.301220906 Z" stroke-miterlimit="10" stroke-width="2.814681184" stroke-dasharray=""/></g><g><g/><text fill="black" stroke="none" font-family="sans-serif" font-size="11pt" font-style="normal" font-weight="normal" text-decoration="normal" x="588.0763300061485" y="121.207208486" text-anchor="start" dominant-baseline="alphabetic" xml:space="preserve">App module</text></g><path fill="none" stroke="none"/><g><path fill="white" stroke="black" paint-order="fill stroke markers" d=" M 702.9942036333907 91.301220906 L 802.2778142617033 91.301220906 L 802.2778142617033 138.798965886 L 702.9942036333907 138.798965886 L 702.9942036333907 91.301220906 Z" stroke-miterlimit="10" stroke-width="2.814681184" stroke-dasharray=""/></g><g><g/><text fill="black" stroke="none" font-family="sans-serif" font-size="11pt" font-style="normal" font-weight="normal" text-decoration="normal" x="722.0812604123907" y="121.207208486" text-anchor="start" dominant-baseline="alphabetic" xml:space="preserve">DB Layer</text></g><g><path fill="white" stroke="black" paint-order="fill stroke markers" d=" M 888.7165914006433 104.31912138199999 L 888.7165914006433 67.37643084199999 L 940.0845230086433 67.37643084199999 L 940.0845230086433 104.31912138199999" stroke-miterlimit="10" stroke-width="2.990598758" stroke-dasharray=""/><path fill="white" stroke="black" paint-order="fill stroke markers" d=" M 940.0845230086433 66.0922325518 L 940.0832388210547 66.20833621555636 L 940.0793863867067 66.3244282690431 L 940.0729660908394 66.4404971031516 L 940.063978575477 66.5565311110952 L 940.0524247393637 66.67251868956978 L 940.0383057378734 66.78844823991415 L 940.0216229828945 66.9043081692699 L 940.0023781426886 67.0200868917406 L 939.9805731417237 67.13577282955055 L 939.9562101604816 67.25135441420231 L 939.9292916352404 67.36682008763378 L 939.8998202578299 67.48215830337381 L 939.8677989753634 67.59735752769696 L 939.8332309899424 67.71240624077679 L 939.7961197583368 67.82729293783784 L 939.7564689916387 67.94200613030618 L 939.7142826548918 68.05653434695814 L 939.6695649666945 68.1708661350675 L 939.6223203987785 68.28499006155073 L 939.572553675561 68.39889471411026 L 939.5202697736731 68.51256870237577 L 939.4654739214614 68.62600065904317 L 939.4081715984653 68.73917924101131 L 939.3483685348695 68.85209313051632 L 939.2860707109303 68.96473103626333 L 939.2212843563784 69.07708169455563 L 939.1540159497953 69.18913387042103 L 939.0842722179653 69.3008763587353 L 939.0120601352038 69.41229798534273 L 938.9373869226588 69.52338760817354 L 938.8602600475892 69.63413411835798 L 938.7806872226183 69.74452644133734 L 938.6986764049624 69.85455353797133 L 938.6142357956348 69.96420440564195 L 938.5273738386261 70.07346807935382 L 938.4380992200596 70.18233363283062 L 938.3464208673228 70.29079017960771 L 938.2523479481745 70.39882687412083 L 938.1558898698283 70.50643291279052 L 938.0570562780116 70.6135975351026 L 937.9558570560013 70.72031002468414 L 937.8523023236352 70.82655971037511 L 937.7464024363003 70.93233596729549 L 937.638167983897 71.03762821790771 L 937.5276097897803 71.14242593307448 L 937.4147389096777 71.2467186331116 L 937.299566630583 71.35049588883598 L 937.182104469628 71.45374732260854 L 937.0623641729312 71.55646260937192 L 936.9403577144224 71.65863147768304 L 936.8160972946456 71.76024371074024 L 936.6895953395393 71.86128914740488 L 936.5608644991938 71.96175768321748 L 936.4299176465856 72.0616392714082 L 936.296767876291 72.16092392390144 L 936.1614285031761 72.25960171231469 L 936.0239130610653 72.35766276895136 L 935.8842353013881 72.45509728778748 L 935.7424091918044 72.55189552545237 L 935.5984489148068 72.64804780220294 L 935.452368866303 72.74354450289161 L 935.3041836541761 72.83837607792793 L 935.1539080968239 72.93253304423341 L 935.0015572216769 73.02600598618986 L 934.8471462636957 73.118785556581 L 934.6906906638472 73.21086247752712 L 934.5322060675613 73.30222754141282 L 934.3717083231654 73.39287161180788 L 934.2092134803003 73.48278562438078 L 934.0447377883146 73.5719605878052 L 933.8782976946408 73.66038758465909 L 933.7099098431493 73.74805777231649 L 933.5395910724851 73.83496238383165 L 933.3673584143831 73.92109272881588 L 933.1932290919659 74.00644019430642 L 933.0172205180205 74.09099624562788 L 932.8393502932574 74.17475242724555 L 932.6596362045512 74.2577003636111 L 932.478096223161 74.33983176 L 932.2947485029332 74.42113840334106 L 932.1096113784876 74.50161216303769 L 931.922703363382 74.58124499178099 L 931.7340431482622 74.66002892635444 L 931.5436495989926 74.73795608843025 L 931.3515417547695 74.81501868535715 L 931.1577388262172 74.89120901093965 L 930.9622601934668 74.9665194462087 L 930.7651254042191 75.0409424601835 L 930.5663541717885 75.11447061062472 L 930.3659663731326 75.18709654477856 L 930.1639820468642 75.25881300011211 L 929.9604213912479 75.32961280503964 L 929.7553047621794 75.39948887963963 L 929.5486526711506 75.46843423636287 L 929.3404857831987 75.53644198073111 L 929.1308249148389 75.60350531202661 L 928.919691031983 75.66961752397214 L 928.7071052478437 75.73477200540155 L 928.4930888208223 75.79896224092104 L 928.277663152383 75.86218181156053 L 928.060849784913 75.92442439541566 L 927.8426703995685 75.98568376827987 L 927.6231468141063 76.04595380426694 L 927.4023009807021 76.10522847642352 L 927.1801549837548 76.16350185733178 L 926.9567310376793 76.22076811970217 L 926.732051484684 76.27702153695618 L 926.5061387925368 76.33225648379899 L 926.2790155523189 76.38646743678191 L 926.0507044761648 76.43964897485485 L 925.8212283949921 76.49179577990829 L 925.5906102562174 76.54290263730519 L 925.3588731214627 76.59296443640241 L 925.1260401642481 76.64197617106174 L 924.8921346676755 76.68993294015058 L 924.6571800220994 76.73682994803197 L 924.4211997227889 76.7826625050442 L 924.1842173675769 76.82742602796976 L 923.9462566545018 76.87111604049369 L 923.7073413794363 76.91372817365111 L 923.4674954337091 76.95525816626423 L 923.2267428017146 76.99570186536839 L 922.9851075585157 77.03505522662739 L 922.742613867435 77.0733143147379 L 922.4992859776398 77.11047530382298 L 922.2551482217162 77.1465344778147 L 922.0102250132364 77.1814882308257 L 921.7645408443171 77.21533306750982 L 921.5181202831704 77.24806560341159 L 921.2709879716472 77.2796825653047 L 921.0231686227727 77.31018079151929 L 920.774687018275 77.33955723225817 L 920.5255680061078 77.36780894990176 L 920.2758364979647 77.3949331193018 L 920.0255174667883 77.42092702806399 L 919.7746359442731 77.44578807681908 L 919.5232170183623 77.46951377948295 L 919.271285830739 77.49210176350509 L 919.018867574312 77.51354977010593 L 918.7659874906966 77.53385565450264 L 918.5126708676905 77.55301738612376 L 918.2589430367449 77.57103304881205 L 918.0048293704313 77.58790084101629 L 917.7503552799046 77.6036190759713 L 917.495546212362 77.61818618186668 L 917.2404276484978 77.63160070200398 L 916.9850250999557 77.64386129494237 L 916.7293641067777 77.65496673463277 L 916.4734702348503 77.66491591054046 L 916.2173690733472 77.67370782775615 L 915.9610862321713 77.68134160709545 L 915.704647339393 77.68781648518677 L 915.4480780386881 77.6931318145477 L 915.1914039867726 77.69728706364975 L 914.934650850838 77.70028181697145 L 914.6778443059837 77.70211577504 L 914.4210100326505 77.70278875446107 L 914.1641737140516 77.70230068793732 L 913.9073610336046 77.70065162427498 L 913.6505976723638 77.69784172837903 L 913.3939093064513 77.69387128123674 L 913.1373216044897 77.68874067988952 L 912.8808602250353 77.68245043739319 L 912.6245508140127 77.6750011827668 L 912.368419002149 77.66639366092959 L 912.1124904024122 77.65662873262656 L 911.8567906074488 77.64570737434241 L 911.6013451870253 77.63363067820387 L 911.346179685471 77.6203998518705 L 911.0913196191233 77.60601621841388 L 910.8367904737764 77.59048121618541 L 910.5826177021329 77.57379639867233 L 910.328826721258 77.5559634343425 L 910.0754429100383 77.53698410647749 L 909.8224916066438 77.51686031299428 L 909.5699981059942 77.49559406625544 L 909.3179876572289 77.47318749286792 L 909.0664854611828 77.44964283347039 L 908.8155166678661 77.42496244250918 L 908.5651063739489 77.3991487880028 L 908.3152796202518 77.3722044512952 L 908.0660613892422 77.3441321267976 L 907.8174766025354 77.31493462171906 L 907.5695501184028 77.28461485578573 L 907.3223067292865 77.25317586094897 L 907.0757711593192 77.22062078108203 L 906.8299680618525 77.18695287166581 L 906.5849220169912 77.15217549946317 L 906.3406575291356 77.11629214218235 L 906.097199024531 77.07930638812917 L 905.8545708488251 77.04122193584823 L 905.6127972646331 77.002042593753 L 905.3719024491119 76.96177227974506 L 905.1319104915425 76.92041502082225 L 904.8928453909205 76.87797495267598 L 904.6547310535568 76.83445631927773 L 904.4175912906868 76.78986347245454 L 904.1814498160891 76.74420087145396 L 903.9463302437142 76.69747308249802 L 903.7122560853237 76.64968477832667 L 903.4792507481382 76.60084073773052 L 903.2473375324973 76.55094584507293 L 903.0165396295292 76.50000508980158 L 902.7868801188322 76.44802356594954 L 902.5583819661656 76.39500647162588 L 902.3310680211544 76.34095910849587 L 902.1049610150036 76.28588688125075 L 901.8800835582256 76.22979529706737 L 901.6564581383785 76.1726899650574 L 901.4341071178179 76.11457659570647 L 901.2130527314608 76.05546100030305 L 900.9933170845613 75.99534909035746 L 900.7749221505013 75.9342468770106 L 900.557889768592 75.87216047043285 L 900.3422416418907 75.80909607921315 L 900.1279993350306 75.74506000973807 L 899.9151842720637 75.6800586655612 L 899.7038177343188 75.61409854676278 L 899.4939208582738 75.54718624929971 L 899.2855146334413 75.47932846434601 L 899.07861990027 75.4105319776236 L 898.873257348061 75.34080366872384 L 898.6694475128982 75.2701505104195 L 898.4672107755954 75.19857956796754 L 898.2665673596578 75.12609799840256 L 898.0675373292596 75.05271304982111 L 897.8701405872383 74.9784320606569 L 897.6743968731033 74.90326245894695 L 897.4803257610632 74.82721176158879 L 897.2879466580672 74.75028757358876 L 897.0972788018654 74.67249758730159 L 896.9083412590846 74.59384958166106 L 896.7211529233215 74.51435142140221 L 896.5357325132537 74.4340110562748 L 896.3520985707678 74.3528365202484 L 896.1702694591049 74.27083593070897 L 895.9902633610247 74.18801748764713 L 895.8120982769872 74.10438947283818 L 895.6357920233519 74.01996024901389 L 895.4613622305976 73.9347382590263 L 895.288826341558 73.84873202500339 L 895.1182016096784 73.76195014749688 L 894.9495050972897 73.67440130462221 L 894.7827536739026 73.58609425119072 L 894.6179640145203 73.49703781783415 L 894.4551525979717 73.40724091012163 L 894.2943357052627 73.3167125076691 L 894.1355294179484 73.22546166324135 L 893.9787496165254 73.1334975018468 L 893.824011978843 73.04082921982494 L 893.6713319785363 72.94746608392677 L 893.5207248834777 72.85341743038806 L 893.3722057542516 72.75869266399579 L 893.2257894426468 72.66330125714767 L 893.0814905901727 72.56725274890488 L 892.9393236265942 72.4705567440382 L 892.7993027684892 72.37322291206758 L 892.6614420178269 72.27526098629505 L 892.5257551605673 72.17668076283158 L 892.3922557652833 72.07749209961737 L 892.2609571818028 71.97770491543608 L 892.1318725398752 71.87732918892296 L 892.0050147478569 71.77637495756703 L 891.8803964914213 71.6748523167073 L 891.7580302322904 71.57277141852325 L 891.6379282069879 71.47014247101961 L 891.5201024256164 71.36697573700563 L 891.4045646706559 71.26328153306875 L 891.2913264957854 71.15907022854292 L 891.1803992247283 71.05435224447177 L 891.071793950119 70.94913805256644 L 890.9655215323946 70.84343817415844 L 890.8615925987083 70.73726317914753 L 890.7600175418669 70.63062368494474 L 890.6608065192914 70.5235303554106 L 890.5639694520013 70.41599389978884 L 890.4695160236228 70.3080250716354 L 890.3774556794199 70.19963466774314 L 890.2877976253503 70.0908335270621 L 890.2005508271448 69.98163252961568 L 890.1157240094104 69.87204259541265 L 890.0333256547582 69.76207468335508 L 889.953364002955 69.65173979014256 L 889.8758470500995 69.54104894917243 L 889.8007825478222 69.43001322943658 L 889.7281780025108 69.31864373441445 L 889.6580406745595 69.20695160096271 L 889.5903775776424 69.09494799820165 L 889.525195478013 68.98264412639821 L 889.4625008938267 68.87005121584596 L 889.40230009449 68.75718052574217 L 889.3445991000324 68.64404334306175 L 889.2894036805054 68.53065098142872 L 889.236719355405 68.41701477998473 L 889.1865513931197 68.30314610225523 L 889.1389048104038 68.1890563350131 L 889.0937843718762 68.07475688714001 L 889.0511945895429 67.96025918848548 L 889.0111397223467 67.84557468872397 L 888.973623775741 67.73071485620987 L 888.9386505012891 67.61569117683074 L 888.9062233962893 67.50051515285864 L 888.8763457034252 67.3851983018 L 888.8490204104411 67.26975215524384 L 888.8242502498435 67.15418825770858 L 888.8020376986279 67.0385181654877 L 888.7823849780309 66.92275344549402 L 888.7652940533083 66.80690567410306 L 888.750766633538 66.69098643599544 L 888.73880417145 66.57500732299836 L 888.7294078632807 66.45897993292647 L 888.722578648653 66.34291586842208 L 888.7183172104826 66.22682673579494 L 888.7166239749098 66.11072414386156 L 888.7174991112568 65.99461970278438 L 888.7209425320107 65.87852502291076 L 888.7269538928322 65.76245171361194 L 888.7355325925903 65.64641138212212 L 888.7466777734221 65.53041563237775 L 888.760388320819 65.41447606385715 L 888.7766628637374 65.29860427042055 L 888.7954997747369 65.18281183915073 L 888.8168971701417 65.06711034919432 L 888.8408529102304 64.95151137060391 L 888.8673645994489 64.83602646318103 L 888.8964295866502 64.72066717532017 L 888.9280449653601 64.60544504285399 L 888.9622075740668 64.49037158789972 L 888.998913996538 64.37545831770696 L 889.0381605621621 64.26071672350696 L 889.0799433463152 64.14615827936355 L 889.1242581707536 64.03179444102564 L 889.171100604032 63.917636644781794 L 889.2204659619458 63.80369630631649 L 889.2723493080007 63.68998481956863 L 889.3267454539051 63.57651355559212 L 889.3836489600898 63.46329386141881 L 889.4430541362516 63.35033705892376 L 889.5049550419225 63.237654443693096 L 889.5693454870632 63.125257283894435 L 889.6362190326831 63.0131568191501 L 889.7055689914835 62.90136425941313 L 889.7773884285259 62.78989078384635 L 889.8516701619268 62.67874753970443 L 889.9284067635746 62.56794564121916 L 890.0075905598732 62.45749616848805 L 890.0892136325087 62.34741016636633 L 890.1732678192421 62.23769864336248 L 890.2597447147248 62.12837257053737 L 890.3486356713391 62.01944288040719 L 890.4399318000635 61.91092046585016 L 890.5336239713613 61.80281617901732 L 890.6297028160934 61.69514083024725 L 890.7281587264554 61.587905186985104 L 890.8289818569382 61.48111997270585 L 890.932162125313 61.37479586584192 L 891.0376892136386 61.2689434987154 L 891.1455525692944 61.16357345647479 L 891.2557414060346 61.05869627603652 L 891.3682447050675 60.954322445031224 L 891.4830512161567 60.85046240075503 L 891.600149458747 60.74712652912581 L 891.7195277231116 60.644325163644616 L 891.8411740715235 60.54206858436233 L 891.9650763394492 60.440367016851674 L 892.0912221367654 60.339230631184634 L 892.2195988489973 60.2386695409155 L 892.3501936385807 60.13869380206951 L 892.4829934461453 60.03931341213722 L 892.6179849918213 59.94053830907482 L 892.7551547765665 59.84237837031029 L 892.8944890835169 59.74484341175572 L 893.0359739793575 59.64794318682568 L 893.179595315717 59.55168738546191 L 893.3253387305813 59.45608563316434 L 893.4731896497303 59.361147490028536 L 893.6231332881955 59.266882449789684 L 893.7751546517378 59.173299938873264 L 893.9292385383476 59.08040931545237 L 894.0853695397647 58.988219868511955 L 894.2435320430191 58.89674081691987 L 894.403710231992 58.805981308505054 L 894.5658880889983 58.715950419142715 L 894.7300493963874 58.62665715184676 L 894.8961777381651 58.5381104358695 L 895.064256501636 58.450319125808754 L 895.2342688790636 58.36329200072237 L 895.4061978693519 58.277037763250334 L 895.5800262797452 58.19156503874451 L 895.7557367275473 58.10688237440612 L 895.9333116418597 58.022998238431036 L 896.1127332653391 57.93992101916295 L 896.2939836559727 57.85765902425456 L 896.4770446888723 57.776220479836795 L 896.6618980580873 57.695613529696246 L 896.8485252784349 57.61584623446075 L 897.0369076873484 57.53692657079335 L 897.2270264467439 57.45886243059466 L 897.4188625449041 57.38166162021363 L 897.6123967983788 57.30533185966698 L 897.8076098539041 57.229880781867145 L 898.004482190337 57.155315931859036 L 898.202994120608 57.08164476606552 L 898.4031257936895 57.008874651541774 L 898.6048571965808 56.93701286523862 L 898.8081681563101 56.866066593274795 L 899.0130383419505 56.79604293021838 L 899.2194472666542 56.726948878377314 L 899.427374289701 56.658791347099225 L 899.6367986185616 56.591577152080426 L 899.8476993109776 56.525313014684414 L 900.0600552770559 56.4600055612697 L 900.2738452813763 56.39566132252722 L 900.489047945117 56.332286732827214 L 900.7056417481907 56.26988812957585 L 900.9236050313976 56.20847175258143 L 901.1429159985911 56.14804374343051 L 901.3635527188572 56.08861014487363 L 901.5854931287079 56.03017690022111 L 901.8087150342868 55.972749852748734 L 902.0331961135896 55.91633474511339 L 902.2589139186955 55.86093721877882 L 902.4858458780119 55.80656281345151 L 902.7139692985321 55.753216966526665 L 902.9432613681042 55.70090501254454 L 903.1736991577121 55.649632182656916 L 903.4052596237691 55.59940360410408 L 903.6379196104215 55.550224299702016 L 903.8716558518644 55.50209918734018 L 904.1064449746685 55.45503307948971 L 904.3422635001174 55.40903068272217 L 904.5790878465547 55.3640965972389 L 904.8168943317432 55.320235316411 L 905.0556591752328 55.27745122633 L 905.295358500738 55.23574860536927 L 905.5359683385258 55.19513162375613 L 905.7774646278131 55.15560434315492 L 906.0198232191722 55.11717071626074 L 906.2630198769459 55.07983458640426 L 906.5070302816712 55.04359968716735 L 906.7518300325108 55.00846964200974 L 906.9973946496938 54.974447963906684 L 907.2436995769629 54.941538054997615 L 907.4907201840308 54.90974320624601 L 907.7384317690426 54.87906659711026 L 907.9868095610461 54.849511295225696 L 908.2358287224693 54.82108025609789 L 908.4854643516034 54.79377632280706 L 908.7356914850935 54.76760222572378 L 908.9864851004351 54.742560582235946 L 909.2378201184752 54.71865389648704 L 909.4896714059216 54.695884559125716 L 909.7420137778556 54.674254847066734 L 909.9948220002502 54.65376692326327 L 910.2480707924938 54.63442283649064 L 910.5017348299182 54.616224521141405 L 910.7557887463311 54.599173797031916 L 911.0102071365524 54.583272369220396 L 911.2649645589553 54.56852182783636 L 911.5200355380098 54.55492364792166 L 911.7753945668305 54.54247918928296 L 912.0310161097274 54.53118969635575 L 912.2868746047592 54.52105629807991 L 912.5429444662896 54.51208000778683 L 912.7992000875457 54.504261723098054 L 913.0556158431791 54.497602225835536 L 913.312166091828 54.49210218194346 L 913.5688251786811 54.487762141421626 L 913.8255674380437 54.484582538270466 L 914.0823671959037 54.482563690447655 L 914.3391987724995 54.481705799836284 L 914.5960364848873 54.4820089522247 L 914.8528546495102 54.48347311729792 L 915.1096275847653 54.486098148640664 L 915.3663296135734 54.48988378375197 L 915.6229350659454 54.49482964407149 L 915.8794182815499 54.50093523501731 L 916.135753612279 54.50819994603543 L 916.3919154248134 54.5166230506608 L 916.6478781031853 54.52620370658997 L 916.9036160513401 54.53694095576534 L 917.159103695696 54.54883372447093 L 917.4143154877016 54.56188082343979 L 917.6692259063905 54.5760809479729 L 917.923809460933 54.591432678069616 L 918.1780406931858 54.607934478569746 L 918.4318941802378 54.62558469930698 L 918.6853445369517 54.644381575273954 L 918.9383664185028 54.66432322679874 L 919.1909345229142 54.685407659732796 L 919.4430235935857 54.70763276565041 L 919.6946084218204 54.7309963220595 L 919.9456638493449 54.75549599262389 L 920.1961647708259 54.78112932739696 L 920.44608613638 54.80789376306658 L 920.6954029540789 54.83578662321149 L 920.9440902924484 54.86480511856891 L 921.1921232829621 54.89494634731351 L 921.4394771225277 54.9262072953475 L 921.6861270759672 54.95858483660216 L 921.9320484784907 54.99207573335032 L 922.1772167381632 55.02667663653023 L 922.421607338363 55.0623840860804 L 922.6651958402333 55.09919451128564 L 922.9079578851274 55.13710423113409 L 923.1498691970429 55.17610945468536 L 923.3909055850502 55.2162062814496 L 923.6310429457114 55.25739070177756 L 923.8702572654906 55.29965859726151 L 924.1085246231551 55.34300574114714 L 924.3458211921676 55.38742779875617 L 924.5821232430691 55.43292032791987 L 924.8174071458513 55.47947877942322 L 925.0516493723202 55.527098497459875 L 925.2848264984482 55.57577472009772 L 925.5169152067169 55.62550257975505 L 925.7478922884491 55.67627710368733 L 925.9777346461289 55.728093214484495 L 926.2064192957122 55.78094573057864 L 926.4339233689245 55.83482936676219 L 926.6602241155483 55.88973873471644 L 926.8852989056973 55.945668343550345 L 927.1091252320801 56.002612600349636 L 927.3316807122507 56.06056581073608 L 927.5529430908463 56.11952217943694 L 927.7728902418136 56.179475810864474 L 927.9915001706207 56.24042070970549 L 928.2087510164571 56.30235078152091 L 928.4246210544189 56.36525983335514 L 928.6390886976826 56.42914157435544 L 928.8521324996623 56.49398961640093 L 929.0637311561554 56.55979747474145 L 929.2738635074728 56.62655856864601 L 929.4825085405541 56.69426622206085 L 929.6896453910701 56.76291366427705 L 929.8952533455084 56.83249403060759 L 930.0993118432448 56.903000363073836 L 930.3018004785996 56.97442561110128 L 930.502699002878 57.04676263222465 L 930.7019873263949 57.120004192802114 L 930.8996455204842 57.19414296873864 L 931.0956538194911 57.26917154621842 L 931.289992622749 57.34508242244624 L 931.4826424965396 57.421868006397716 L 931.673584176036 57.49952061957846 L 931.8627985672294 57.57803249679186 L 932.0502667488383 57.657395786915615 L 932.235969974201 57.73760255368685 L 932.4198896731494 57.81864477649573 L 932.6020074538671 57.9005143511875 L 932.7823051047277 57.983203090872934 L 932.9607645961163 58.06670272674695 L 933.1373680822326 58.15100490891555 L 933.3120979028749 58.23610120723078 L 933.4849365852072 58.32198311213371 L 933.655866845505 58.40864203550541 L 933.8248715908846 58.49606931152578 L 933.9919339210126 58.58425619754006 L 934.157037129795 58.67319387493313 L 934.3201647070485 58.76287345001139 L 934.4813003401515 58.853285954892044 L 934.6404279156748 58.944422348399954 L 934.7975315209935 59.03627351697172 L 934.9525954458779 59.12883027556701 L 935.105604184065 59.222083368587114 L 935.2565424348081 59.31602347080043 L 935.4053951044083 59.41064118827504 L 935.5521473077224 59.50592705931801 L 935.6967843696524 59.60187155542167 L 935.8392918266128 59.698465082216345 L 935.9796554279765 59.79569798042986 L 936.1178611375004 59.89356052685341 L 936.2538951347287 59.99204293531392 L 936.3877438163751 60.0911353576526 L 936.5193937976828 60.1908278847098 L 936.6488319137636 60.29111054731588 L 936.7760452209137 60.39197331728817 L 936.9010209979083 60.4934061084337 L 937.0237467472739 60.5953987775579 L 937.1442101965378 60.69794112547884 L 937.2623992994555 60.80102289804719 L 937.3783022372152 60.90463378717158 L 937.4919074196197 61.00876343184945 L 937.6032034862454 61.113401419203115 L 937.7121793075785 61.218537285521016 L 937.8188239861275 61.32416051730415 L 937.9231268575136 61.43026055231736 L 938.0250774915364 61.53682678064554 L 938.1246656932176 61.643848545754686 L 938.2218815038199 61.75131514555746 L 938.3167152018434 61.85921583348345 L 938.4091573039972 61.96753981955375 L 938.4991985661482 62.07627627146005 L 938.5868299842451 62.18541431564777 L 938.6720427952193 62.29494303840343 L 938.7548284778605 62.404851486946036 L 938.8351787536697 62.515128670522316 L 938.9130855876859 62.62576356150581 L 938.988541189291 62.736745096499625 L 939.0615380129875 62.84806217744274 L 939.132068759154 62.959703672719826 L 939.2001263747745 63.07165841827438 L 939.2657040541442 63.18391521872516 L 939.3287952395499 63.29646284848565 L 939.3893936219255 63.409290052886675 L 939.4474931414834 63.52238554930181 L 939.50308798832 63.63573802827567 L 939.5561726029969 63.7493361546548 L 939.6067416770968 63.86316856872124 L 939.6547901537547 63.97722388732845 L 939.7003132281627 64.09149070503959 L 939.7433063480515 64.20595759526815 L 939.7837652141449 64.32061311142046 L 939.8216857805899 64.43544578804045 L 939.8570642553614 64.55044414195618 L 939.8898971006416 64.66559667342807 L 939.9201810331732 64.78089186729893 L 939.9479130245883 64.89631819414548 L 939.9730903017107 65.0118641114312 L 939.9957103468339 65.12751806466063 L 940.015770897972 65.24326848853487 L 940.0332699490867 65.35910380810796 L 940.0482057502876 65.47501243994449 L 940.0605768080068 65.59098279327785 L 940.070381885149 65.70700327116936 L 940.0776200012145 65.8230622716679 L 940.0822904323979 65.93914818897015 L 940.0843927116599 66.05524941458111 M 940.0845230086433 103.0349230918 L 940.0832388210547 103.15102675555636 L 940.0793863867067 103.2671188090431 L 940.0729660908394 103.3831876431516 L 940.063978575477 103.4992216510952 L 940.0524247393637 103.61520922956979 L 940.0383057378734 103.73113877991415 L 940.0216229828945 103.8469987092699 L 940.0023781426886 103.9627774317406 L 939.9805731417237 104.07846336955055 L 939.9562101604816 104.19404495420231 L 939.9292916352404 104.30951062763378 L 939.8998202578299 104.42484884337381 L 939.8677989753634 104.54004806769696 L 939.8332309899424 104.65509678077679 L 939.7961197583368 104.76998347783784 L 939.7564689916387 104.88469667030618 L 939.7142826548918 104.99922488695815 L 939.6695649666945 105.1135566750675 L 939.6223203987785 105.22768060155073 L 939.572553675561 105.34158525411026 L 939.5202697736731 105.45525924237577 L 939.4654739214614 105.56869119904317 L 939.4081715984653 105.68186978101132 L 939.3483685348695 105.79478367051632 L 939.2860707109303 105.90742157626333 L 939.2212843563784 106.01977223455563 L 939.1540159497953 106.13182441042103 L 939.0842722179653 106.2435668987353 L 939.0120601352038 106.35498852534273 L 938.9373869226588 106.46607814817354 L 938.8602600475892 106.57682465835798 L 938.7806872226183 106.68721698133734 L 938.6986764049624 106.79724407797133 L 938.6142357956348 106.90689494564195 L 938.5273738386261 107.01615861935382 L 938.4380992200596 107.12502417283062 L 938.3464208673228 107.23348071960771 L 938.2523479481745 107.34151741412083 L 938.1558898698283 107.44912345279052 L 938.0570562780116 107.5562880751026 L 937.9558570560013 107.66300056468414 L 937.8523023236352 107.76925025037511 L 937.7464024363003 107.87502650729549 L 937.638167983897 107.98031875790771 L 937.5276097897803 108.08511647307448 L 937.4147389096777 108.1894091731116 L 937.299566630583 108.29318642883598 L 937.182104469628 108.39643786260854 L 937.0623641729312 108.49915314937192 L 936.9403577144224 108.60132201768305 L 936.8160972946456 108.70293425074024 L 936.6895953395393 108.80397968740488 L 936.5608644991938 108.90444822321749 L 936.4299176465856 109.0043298114082 L 936.296767876291 109.10361446390144 L 936.1614285031761 109.20229225231469 L 936.0239130610653 109.30035330895136 L 935.8842353013881 109.39778782778748 L 935.7424091918044 109.49458606545237 L 935.5984489148068 109.59073834220294 L 935.452368866303 109.68623504289161 L 935.3041836541761 109.78106661792793 L 935.1539080968239 109.87522358423341 L 935.0015572216769 109.96869652618986 L 934.8471462636957 110.061476096581 L 934.6906906638472 110.15355301752712 L 934.5322060675613 110.24491808141282 L 934.3717083231654 110.33556215180788 L 934.2092134803003 110.42547616438078 L 934.0447377883146 110.5146511278052 L 933.8782976946408 110.60307812465909 L 933.7099098431493 110.69074831231649 L 933.5395910724851 110.77765292383165 L 933.3673584143831 110.86378326881588 L 933.1932290919659 110.94913073430642 L 933.0172205180205 111.03368678562788 L 932.8393502932574 111.11744296724555 L 932.6596362045512 111.2003909036111 L 932.478096223161 111.2825223 L 932.2947485029332 111.36382894334106 L 932.1096113784876 111.44430270303769 L 931.922703363382 111.52393553178099 L 931.7340431482622 111.60271946635444 L 931.5436495989926 111.68064662843025 L 931.3515417547695 111.75770922535715 L 931.1577388262172 111.83389955093965 L 930.9622601934668 111.9092099862087 L 930.7651254042191 111.9836330001835 L 930.5663541717885 112.05716115062472 L 930.3659663731326 112.12978708477856 L 930.1639820468642 112.20150354011211 L 929.9604213912479 112.27230334503965 L 929.7553047621794 112.34217941963963 L 929.5486526711506 112.41112477636287 L 929.3404857831987 112.47913252073111 L 929.1308249148389 112.54619585202661 L 928.919691031983 112.61230806397214 L 928.7071052478437 112.67746254540155 L 928.4930888208223 112.74165278092104 L 928.277663152383 112.80487235156053 L 928.060849784913 112.86711493541566 L 927.8426703995685 112.92837430827987 L 927.6231468141063 112.98864434426694 L 927.4023009807021 113.04791901642352 L 927.1801549837548 113.10619239733178 L 926.9567310376793 113.16345865970217 L 926.732051484684 113.21971207695618 L 926.5061387925368 113.27494702379899 L 926.2790155523189 113.32915797678191 L 926.0507044761648 113.38233951485485 L 925.8212283949921 113.43448631990829 L 925.5906102562174 113.48559317730519 L 925.3588731214627 113.53565497640241 L 925.1260401642481 113.58466671106174 L 924.8921346676755 113.63262348015058 L 924.6571800220994 113.67952048803197 L 924.4211997227889 113.7253530450442 L 924.1842173675769 113.77011656796977 L 923.9462566545018 113.81380658049369 L 923.7073413794363 113.85641871365111 L 923.4674954337091 113.89794870626423 L 923.2267428017146 113.93839240536839 L 922.9851075585157 113.9777457666274 L 922.742613867435 114.0160048547379 L 922.4992859776398 114.05316584382298 L 922.2551482217162 114.0892250178147 L 922.0102250132364 114.12417877082571 L 921.7645408443171 114.15802360750982 L 921.5181202831704 114.19075614341159 L 921.2709879716472 114.2223731053047 L 921.0231686227727 114.25287133151929 L 920.774687018275 114.28224777225817 L 920.5255680061078 114.31049948990176 L 920.2758364979647 114.3376236593018 L 920.0255174667883 114.36361756806399 L 919.7746359442731 114.38847861681909 L 919.5232170183623 114.41220431948295 L 919.271285830739 114.43479230350509 L 919.018867574312 114.45624031010593 L 918.7659874906966 114.47654619450265 L 918.5126708676905 114.49570792612376 L 918.2589430367449 114.51372358881206 L 918.0048293704313 114.5305913810163 L 917.7503552799046 114.5463096159713 L 917.495546212362 114.56087672186668 L 917.2404276484978 114.57429124200398 L 916.9850250999557 114.58655183494237 L 916.7293641067777 114.59765727463277 L 916.4734702348503 114.60760645054046 L 916.2173690733472 114.61639836775615 L 915.9610862321713 114.62403214709545 L 915.704647339393 114.63050702518677 L 915.4480780386881 114.6358223545477 L 915.1914039867726 114.63997760364975 L 914.934650850838 114.64297235697146 L 914.6778443059837 114.64480631504 L 914.4210100326505 114.64547929446107 L 914.1641737140516 114.64499122793733 L 913.9073610336046 114.64334216427498 L 913.6505976723638 114.64053226837903 L 913.3939093064513 114.63656182123674 L 913.1373216044897 114.63143121988952 L 912.8808602250353 114.62514097739319 L 912.6245508140127 114.6176917227668 L 912.368419002149 114.60908420092959 L 912.1124904024122 114.59931927262656 L 911.8567906074488 114.58839791434241 L 911.6013451870253 114.57632121820387 L 911.346179685471 114.5630903918705 L 911.0913196191233 114.54870675841389 L 910.8367904737764 114.53317175618541 L 910.5826177021329 114.51648693867233 L 910.328826721258 114.4986539743425 L 910.0754429100383 114.47967464647749 L 909.8224916066438 114.45955085299428 L 909.5699981059942 114.43828460625544 L 909.3179876572289 114.41587803286792 L 909.0664854611828 114.3923333734704 L 908.8155166678661 114.36765298250918 L 908.5651063739489 114.3418393280028 L 908.3152796202518 114.3148949912952 L 908.0660613892422 114.2868226667976 L 907.8174766025354 114.25762516171906 L 907.5695501184028 114.22730539578573 L 907.3223067292865 114.19586640094897 L 907.0757711593192 114.16331132108203 L 906.8299680618525 114.12964341166581 L 906.5849220169912 114.09486603946317 L 906.3406575291356 114.05898268218235 L 906.097199024531 114.02199692812917 L 905.8545708488251 113.98391247584823 L 905.6127972646331 113.944733133753 L 905.3719024491119 113.90446281974506 L 905.1319104915425 113.86310556082225 L 904.8928453909205 113.82066549267599 L 904.6547310535568 113.77714685927774 L 904.4175912906868 113.73255401245454 L 904.1814498160891 113.68689141145396 L 903.9463302437142 113.64016362249802 L 903.7122560853237 113.59237531832667 L 903.4792507481382 113.54353127773052 L 903.2473375324973 113.49363638507293 L 903.0165396295292 113.44269562980158 L 902.7868801188322 113.39071410594954 L 902.5583819661656 113.33769701162588 L 902.3310680211544 113.28364964849587 L 902.1049610150036 113.22857742125075 L 901.8800835582256 113.17248583706737 L 901.6564581383785 113.1153805050574 L 901.4341071178179 113.05726713570647 L 901.2130527314608 112.99815154030306 L 900.9933170845613 112.93803963035747 L 900.7749221505013 112.8769374170106 L 900.557889768592 112.81485101043285 L 900.3422416418907 112.75178661921315 L 900.1279993350306 112.68775054973807 L 899.9151842720637 112.6227492055612 L 899.7038177343188 112.55678908676278 L 899.4939208582738 112.48987678929971 L 899.2855146334413 112.42201900434601 L 899.07861990027 112.3532225176236 L 898.873257348061 112.28349420872384 L 898.6694475128982 112.2128410504195 L 898.4672107755954 112.14127010796754 L 898.2665673596578 112.06878853840256 L 898.0675373292596 111.99540358982111 L 897.8701405872383 111.9211226006569 L 897.6743968731033 111.84595299894696 L 897.4803257610632 111.76990230158879 L 897.2879466580672 111.69297811358877 L 897.0972788018654 111.6151881273016 L 896.9083412590846 111.53654012166106 L 896.7211529233215 111.45704196140221 L 896.5357325132537 111.3767015962748 L 896.3520985707678 111.2955270602484 L 896.1702694591049 111.21352647070897 L 895.9902633610247 111.13070802764713 L 895.8120982769872 111.04708001283818 L 895.6357920233519 110.96265078901389 L 895.4613622305976 110.8774287990263 L 895.288826341558 110.79142256500339 L 895.1182016096784 110.70464068749688 L 894.9495050972897 110.61709184462221 L 894.7827536739026 110.52878479119072 L 894.6179640145203 110.43972835783416 L 894.4551525979717 110.34993145012163 L 894.2943357052627 110.2594030476691 L 894.1355294179484 110.16815220324135 L 893.9787496165254 110.0761880418468 L 893.824011978843 109.98351975982494 L 893.6713319785363 109.89015662392677 L 893.5207248834777 109.79610797038806 L 893.3722057542516 109.70138320399579 L 893.2257894426468 109.60599179714767 L 893.0814905901727 109.50994328890488 L 892.9393236265942 109.4132472840382 L 892.7993027684892 109.31591345206758 L 892.6614420178269 109.21795152629505 L 892.5257551605673 109.11937130283158 L 892.3922557652833 109.02018263961737 L 892.2609571818028 108.92039545543608 L 892.1318725398752 108.82001972892296 L 892.0050147478569 108.71906549756703 L 891.8803964914213 108.6175428567073 L 891.7580302322904 108.51546195852325 L 891.6379282069879 108.41283301101961 L 891.5201024256164 108.30966627700563 L 891.4045646706559 108.20597207306875 L 891.2913264957854 108.10176076854292 L 891.1803992247283 107.99704278447177 L 891.071793950119 107.89182859256644 L 890.9655215323946 107.78612871415844 L 890.8615925987083 107.67995371914753 L 890.7600175418669 107.57331422494474 L 890.6608065192914 107.4662208954106 L 890.5639694520013 107.35868443978885 L 890.4695160236228 107.2507156116354 L 890.3774556794199 107.14232520774314 L 890.2877976253503 107.0335240670621 L 890.2005508271448 106.92432306961568 L 890.1157240094104 106.81473313541265 L 890.0333256547582 106.70476522335508 L 889.953364002955 106.59443033014256 L 889.8758470500995 106.48373948917244 L 889.8007825478222 106.37270376943658 L 889.7281780025108 106.26133427441445 L 889.6580406745595 106.14964214096271 L 889.5903775776424 106.03763853820165 L 889.525195478013 105.92533466639821 L 889.4625008938267 105.81274175584596 L 889.40230009449 105.69987106574217 L 889.3445991000324 105.58673388306175 L 889.2894036805054 105.47334152142872 L 889.236719355405 105.35970531998473 L 889.1865513931197 105.24583664225523 L 889.1389048104038 105.1317468750131 L 889.0937843718762 105.01744742714001 L 889.0511945895429 104.90294972848548 L 889.0111397223467 104.78826522872397 L 888.973623775741 104.67340539620987 L 888.9386505012891 104.55838171683074 L 888.9062233962893 104.44320569285864 L 888.8763457034252 104.3278888418 L 888.8490204104411 104.21244269524384 L 888.8242502498435 104.09687879770858 L 888.8020376986279 103.9812087054877 L 888.7823849780309 103.86544398549403 L 888.7652940533083 103.74959621410306 L 888.750766633538 103.63367697599544 L 888.73880417145 103.51769786299836 L 888.7294078632807 103.40167047292647 L 888.722578648653 103.28560640842208 L 888.7183172104826 103.16951727579495 L 888.7166239749098 103.05341468386156" stroke-miterlimit="10" stroke-width="2.990598758" stroke-dasharray=""/></g><g><g/><text fill="black" stroke="none" font-family="sans-serif" font-size="11pt" font-style="normal" font-weight="normal" text-decoration="normal" x="895.6604067529831" y="133.521438666" text-anchor="start" dominant-baseline="alphabetic" xml:space="preserve">Redis</text></g></g><g><g><g><rect fill="white" stroke="none" x="94.73061775047786" y="173.982480686" width="89.21450842117187" height="22.86928462"/></g><text fill="black" stroke="none" font-family="sans-serif" font-size="11pt" font-style="normal" font-weight="normal" text-decoration="normal" x="97.36938136047786" y="189.81506234600002" text-anchor="start" dominant-baseline="alphabetic" xml:space="preserve">Edit Request</text></g><g><path fill="none" stroke="black" paint-order="fill stroke markers" d=" M 68.20862670214453 196.851765306 L 195.98323696064972 196.851765306" stroke-miterlimit="10" stroke-width="1.4659797833333332" stroke-dasharray=""/><g transform="translate(210.46711721998307,196.851765306) translate(-210.46711721998307,-196.851765306)"><path fill="black" stroke="none" paint-order="stroke fill markers" d=" M 195.80731938664974 189.52186638933333 L 210.46711721998307 196.851765306 L 195.80731938664974 204.18166422266668 Z"/></g></g><g><g><rect fill="white" stroke="none" x="236.99269408374607" y="223.23940140599998" width="144.06771887039062" height="22.86928462"/></g><text fill="black" stroke="none" font-family="sans-serif" font-size="11pt" font-style="normal" font-weight="normal" text-decoration="normal" x="239.63145769374609" y="239.071983066" text-anchor="start" dominant-baseline="alphabetic" xml:space="preserve">Invokes Translib.Bulk</text></g><g><path fill="none" stroke="black" paint-order="fill stroke markers" d=" M 210.46711721998307 246.108686026 L 393.10210955856644 246.108686026" stroke-miterlimit="10" stroke-width="1.4659797833333332" stroke-dasharray=""/><g transform="translate(407.58598981789976,246.108686026) translate(-407.58598981789976,-246.108686026)"><path fill="black" stroke="none" paint-order="stroke fill markers" d=" M 392.9261919845664 238.7787871093333 L 407.58598981789976 246.108686026 L 392.9261919845664 253.43858494266667 Z"/></g></g><g><g><rect fill="white" stroke="none" x="428.40290274123305" y="272.496322126" width="177.97604406570312" height="22.86928462"/></g><text fill="black" stroke="none" font-family="sans-serif" font-size="11pt" font-style="normal" font-weight="normal" text-decoration="normal" x="431.04166635123306" y="288.328903786" text-anchor="start" dominant-baseline="alphabetic" xml:space="preserve">Init(), translate(), process()</text></g><g><path fill="none" stroke="black" paint-order="fill stroke markers" d=" M 407.58598981789976 295.36560674599997 L 612.7119794709363 295.36560674599997" stroke-miterlimit="10" stroke-width="1.4659797833333332" stroke-dasharray=""/><g transform="translate(627.1958597302696,295.36560674599997) translate(-627.1958597302696,-295.36560674599997)"><path fill="black" stroke="none" paint-order="stroke fill markers" d=" M 612.5360618969363 288.0357078293333 L 627.1958597302696 295.36560674599997 L 612.5360618969363 302.6955056626666 Z"/></g></g><g><g><rect fill="white" stroke="none" x="654.6895013563498" y="321.753242846" width="70.45286596511718" height="22.86928462"/></g><text fill="black" stroke="none" font-family="sans-serif" font-size="11pt" font-style="normal" font-weight="normal" text-decoration="normal" x="657.3282649663497" y="337.585824506" text-anchor="start" dominant-baseline="alphabetic" xml:space="preserve">SetAPIS()</text></g><g><path fill="none" stroke="black" paint-order="fill stroke markers" d=" M 627.1958597302696 344.62252746599995 L 738.1521286882137 344.62252746599995" stroke-miterlimit="10" stroke-width="1.4659797833333332" stroke-dasharray=""/><g transform="translate(752.636008947547,344.62252746599995) translate(-752.636008947547,-344.62252746599995)"><path fill="black" stroke="none" paint-order="stroke fill markers" d=" M 737.9762111142137 337.2926285493333 L 752.636008947547 344.62252746599995 L 737.9762111142137 351.9524263826666 Z"/></g></g><g><g><rect fill="white" stroke="none" x="773.4529218708803" y="371.01016356599996" width="120.13072241042968" height="22.86928462"/></g><text fill="black" stroke="none" font-family="sans-serif" font-size="11pt" font-style="normal" font-weight="normal" text-decoration="normal" x="776.0916854808803" y="386.842745226" text-anchor="start" dominant-baseline="alphabetic" xml:space="preserve">doCvl(), DbAPIs()</text></g><g><path fill="none" stroke="black" paint-order="fill stroke markers" d=" M 752.636008947547 393.87944818599993 L 899.91667694531 393.87944818599993" stroke-miterlimit="10" stroke-width="1.4659797833333332" stroke-dasharray=""/><g transform="translate(914.4005572046433,393.87944818599993) translate(-914.4005572046433,-393.87944818599993)"><path fill="black" stroke="none" paint-order="stroke fill markers" d=" M 899.74075937131 386.5495492693333 L 914.4005572046433 393.87944818599993 L 899.74075937131 401.2093471026666 Z"/></g></g><g><g><rect fill="white" stroke="none" x="830.8795194660952" y="420.26708428599994" width="5.27752722" height="22.86928462"/></g><text fill="black" stroke="none" font-family="sans-serif" font-size="11pt" font-style="normal" font-weight="normal" text-decoration="normal" x="833.5182830760951" y="436.09966594599996" text-anchor="start" dominant-baseline="alphabetic" xml:space="preserve"></text></g><g><path fill="none" stroke="black" paint-order="fill stroke markers" d=" M 914.4005572046433 443.1363689059999 L 767.1198892068803 443.1363689059999" stroke-miterlimit="10" stroke-width="1.4659797833333332" stroke-dasharray="7.0367029599999995"/><g transform="translate(752.636008947547,443.1363689059999) translate(-752.636008947547,-443.1363689059999)"><path fill="black" stroke="none" paint-order="stroke fill markers" d=" M 767.2958067808803 435.80646998933327 L 752.636008947547 443.1363689059999 L 767.2958067808803 450.46626782266657 Z"/></g></g><g><g><rect fill="white" stroke="none" x="687.2771707289083" y="469.5240050059999" width="5.27752722" height="22.86928462"/></g><text fill="black" stroke="none" font-family="sans-serif" font-size="11pt" font-style="normal" font-weight="normal" text-decoration="normal" x="689.9159343389083" y="485.35658666599994" text-anchor="start" dominant-baseline="alphabetic" xml:space="preserve"></text></g><g><path fill="none" stroke="black" paint-order="fill stroke markers" d=" M 752.636008947547 492.3932896259999 L 641.6797399896029 492.3932896259999" stroke-miterlimit="10" stroke-width="1.4659797833333332" stroke-dasharray="7.0367029599999995"/><g transform="translate(627.1958597302696,492.3932896259999) translate(-627.1958597302696,-492.3932896259999)"><path fill="black" stroke="none" paint-order="stroke fill markers" d=" M 641.8556575636029 485.06339070933325 L 627.1958597302696 492.3932896259999 L 641.8556575636029 499.72318854266655 Z"/></g></g><g><g><rect fill="white" stroke="none" x="514.7521611640847" y="518.7809257259999" width="5.27752722" height="22.86928462"/></g><text fill="black" stroke="none" font-family="sans-serif" font-size="11pt" font-style="normal" font-weight="normal" text-decoration="normal" x="517.3909247740846" y="534.6135073859998" text-anchor="start" dominant-baseline="alphabetic" xml:space="preserve"></text></g><g><path fill="none" stroke="black" paint-order="fill stroke markers" d=" M 627.1958597302696 541.6502103459999 L 422.0698700772331 541.6502103459999" stroke-miterlimit="10" stroke-width="1.4659797833333332" stroke-dasharray="7.0367029599999995"/><g transform="translate(407.58598981789976,541.6502103459999) translate(-407.58598981789976,-541.6502103459999)"><path fill="black" stroke="none" paint-order="stroke fill markers" d=" M 422.2457876512331 534.3203114293332 L 407.58598981789976 541.6502103459999 L 422.2457876512331 548.9801092626666 Z"/></g></g><g><g><rect fill="white" stroke="none" x="231.2840301433164" y="568.0378464459999" width="155.48504675125" height="22.86928462"/></g><text fill="black" stroke="none" font-family="sans-serif" font-size="11pt" font-style="normal" font-weight="normal" text-decoration="normal" x="233.9227937533164" y="583.8704281059998" text-anchor="start" dominant-baseline="alphabetic" xml:space="preserve">Translib.BulkResponse</text></g><g><path fill="none" stroke="black" paint-order="fill stroke markers" d=" M 407.58598981789976 590.9071310659999 L 224.9509974793164 590.9071310659999" stroke-miterlimit="10" stroke-width="1.4659797833333332" stroke-dasharray="7.0367029599999995"/><g transform="translate(210.46711721998307,590.9071310659999) translate(-210.46711721998307,-590.9071310659999)"><path fill="black" stroke="none" paint-order="stroke fill markers" d=" M 225.1269150533164 583.5772321493332 L 210.46711721998307 590.9071310659999 L 225.1269150533164 598.2370299826666 Z"/></g></g><g><g><rect fill="white" stroke="none" x="89.02553962547786" y="617.2947671659999" width="100.62466467117187" height="22.86928462"/></g><text fill="black" stroke="none" font-family="sans-serif" font-size="11pt" font-style="normal" font-weight="normal" text-decoration="normal" x="91.66430323547786" y="633.1273488259999" text-anchor="start" dominant-baseline="alphabetic" xml:space="preserve">Edit Response</text></g><g><path fill="none" stroke="black" paint-order="fill stroke markers" d=" M 210.46711721998307 640.164051786 L 82.69250696147786 640.164051786" stroke-miterlimit="10" stroke-width="1.4659797833333332" stroke-dasharray="7.0367029599999995"/><g transform="translate(68.20862670214453,640.164051786) translate(-68.20862670214453,-640.164051786)"><path fill="black" stroke="none" paint-order="stroke fill markers" d=" M 82.86842453547786 632.8341528693333 L 68.20862670214453 640.164051786 L 82.86842453547786 647.4939507026667 Z"/></g></g></g><g/><g/><g/><g/><g/><g/></g></svg>