<svg version="1.1" xmlns="http://www.w3.org/2000/svg" xmlns:xlink="http://www.w3.org/1999/xlink" width="999" height="701"><desc>title%20YANG%20PATCH%0Aparticipant%20REST%20Client%0Aparticipant%20REST%20Server%0Aparticipant%20Translib%20API%0Aparticipant%20App%20module%0Aparticipant%20DB%20Layer%0Adatabase%20Redis%0A%0AREST%20Client%20-%3EREST%20Server%3A%20yang-patch%20request%0AREST%20Server%20-%3ETranslib%20API%3A%20Invokes%20Translib.Bulk%0ATranslib%20API%20-%3EApp%20module%3AInit()%2C%20translate()%2C%20process()%0AApp%20module%20-%3EDB%20Layer%3A%20SetAPIS()%0ADB%20Layer%20-%3ERedis%3A%20doCvl()%2C%20DbAPIs()%0ADB%20Layer%20%3C--Redis%3A%0AApp%20module%20%3C--DB%20Layer%3A%0ATranslib%20API%20%3C--App%20module%3A%0AREST%20Server%20%3C--Translib%20API%3ATranslib.BulkResponse%0AREST%20Client%20%3C--REST%20Server%3Ayang-patch%20response%0A</desc><defs/><g><g/><g/><g/><g/><g/><g/><g/><g/><g/><g/><g><rect fill="white" stroke="none" x="0" y="0" width="999" height="701"/></g><g><text fill="black" stroke="none" font-family="sans-serif" font-size="16.5pt" font-style="normal" font-weight="normal" text-decoration="normal" x="430.8961444807396" y="26.3876361" text-anchor="start" dominant-baseline="alphabetic" xml:space="preserve">YANG PATCH</text></g><g/><g><path fill="none" stroke="black" paint-order="fill stroke markers" d=" M 68.20862670214453 138.798965886 L 68.20862670214453 701.735202686" stroke-miterlimit="10" stroke-width="1.4659797833333332" stroke-dasharray="13.532121076923076,5.863919133333333"/><path fill="none" stroke="black" paint-order="fill stroke markers" d=" M 252.034728914319 138.798965886 L 252.034728914319 701.735202686" stroke-miterlimit="10" stroke-width="1.4659797833333332" stroke-dasharray="13.532121076923076,5.863919133333333"/><path fill="none" stroke="black" paint-order="fill stroke markers" d=" M 449.1536015122357 138.798965886 L 449.1536015122357 701.735202686" stroke-miterlimit="10" stroke-width="1.4659797833333332" stroke-dasharray="13.532121076923076,5.863919133333333"/><path fill="none" stroke="black" paint-order="fill stroke markers" d=" M 668.7634714246055 138.798965886 L 668.7634714246055 701.735202686" stroke-miterlimit="10" stroke-width="1.4659797833333332" stroke-dasharray="13.532121076923076,5.863919133333333"/><path fill="none" stroke="black" paint-order="fill stroke markers" d=" M 794.2036206418829 138.798965886 L 794.2036206418829 701.735202686" stroke-miterlimit="10" stroke-width="1.4659797833333332" stroke-dasharray="13.532121076923076,5.863919133333333"/><path fill="none" stroke="black" paint-order="fill stroke markers" d=" M 955.9681688989792 138.798965886 L 955.9681688989792 701.735202686" stroke-miterlimit="10" stroke-width="1.4659797833333332" stroke-dasharray="13.532121076923076,5.863919133333333"/></g><g><path fill="none" stroke="none"/><g><path fill="white" stroke="black" paint-order="fill stroke markers" d=" M 8.795878699999996 91.301220906 L 127.62137470428905 91.301220906 L 127.62137470428905 138.798965886 L 8.795878699999996 138.798965886 L 8.795878699999996 91.301220906 Z" stroke-miterlimit="10" stroke-width="2.814681184" stroke-dasharray=""/></g><g><g/><text fill="black" stroke="none" font-family="sans-serif" font-size="11pt" font-style="normal" font-weight="normal" text-decoration="normal" x="27.882935478999997" y="121.207208486" text-anchor="start" dominant-baseline="alphabetic" xml:space="preserve">REST Client</text></g><path fill="none" stroke="none"/><g><path fill="white" stroke="black" paint-order="fill stroke markers" d=" M 189.77302766510417 91.301220906 L 314.29643016353384 91.301220906 L 314.29643016353384 138.798965886 L 189.77302766510417 138.798965886 L 189.77302766510417 91.301220906 Z" stroke-miterlimit="10" stroke-width="2.814681184" stroke-dasharray=""/></g><g><g/><text fill="black" stroke="none" font-family="sans-serif" font-size="11pt" font-style="normal" font-weight="normal" text-decoration="normal" x="208.86008444410416" y="121.207208486" text-anchor="start" dominant-baseline="alphabetic" xml:space="preserve">REST Server</text></g><path fill="none" stroke="none"/><g><path fill="white" stroke="black" paint-order="fill stroke markers" d=" M 390.41373559016927 91.301220906 L 507.89346743430207 91.301220906 L 507.89346743430207 138.798965886 L 390.41373559016927 138.798965886 L 390.41373559016927 91.301220906 Z" stroke-miterlimit="10" stroke-width="2.814681184" stroke-dasharray=""/></g><g><g/><text fill="black" stroke="none" font-family="sans-serif" font-size="11pt" font-style="normal" font-weight="normal" text-decoration="normal" x="409.5007923691693" y="121.207208486" text-anchor="start" dominant-baseline="alphabetic" xml:space="preserve">Translib API</text></g><path fill="none" stroke="none"/><g><path fill="white" stroke="black" paint-order="fill stroke markers" d=" M 610.5568849214844 91.301220906 L 726.9700579277267 91.301220906 L 726.9700579277267 138.798965886 L 610.5568849214844 138.798965886 L 610.5568849214844 91.301220906 Z" stroke-miterlimit="10" stroke-width="2.814681184" stroke-dasharray=""/></g><g><g/><text fill="black" stroke="none" font-family="sans-serif" font-size="11pt" font-style="normal" font-weight="normal" text-decoration="normal" x="629.6439417004844" y="121.207208486" text-anchor="start" dominant-baseline="alphabetic" xml:space="preserve">App module</text></g><path fill="none" stroke="none"/><g><path fill="white" stroke="black" paint-order="fill stroke markers" d=" M 744.5618153277267 91.301220906 L 843.8454259560392 91.301220906 L 843.8454259560392 138.798965886 L 744.5618153277267 138.798965886 L 744.5618153277267 91.301220906 Z" stroke-miterlimit="10" stroke-width="2.814681184" stroke-dasharray=""/></g><g><g/><text fill="black" stroke="none" font-family="sans-serif" font-size="11pt" font-style="normal" font-weight="normal" text-decoration="normal" x="763.6488721067267" y="121.207208486" text-anchor="start" dominant-baseline="alphabetic" xml:space="preserve">DB Layer</text></g><g><path fill="white" stroke="black" paint-order="fill stroke markers" d=" M 930.2842030949793 104.31912138199999 L 930.2842030949793 67.37643084199999 L 981.6521347029792 67.37643084199999 L 981.6521347029792 104.31912138199999" stroke-miterlimit="10" stroke-width="2.990598758" stroke-dasharray=""/><path fill="white" stroke="black" paint-order="fill stroke markers" d=" M 981.6521347029792 66.0922325518 L 981.6508505153906 66.20833621555636 L 981.6469980810426 66.3244282690431 L 981.6405777851753 66.4404971031516 L 981.6315902698129 66.5565311110952 L 981.6200364336996 66.67251868956978 L 981.6059174322094 66.78844823991415 L 981.5892346772305 66.9043081692699 L 981.5699898370245 67.0200868917406 L 981.5481848360596 67.13577282955055 L 981.5238218548176 67.25135441420231 L 981.4969033295763 67.36682008763378 L 981.4674319521658 67.48215830337381 L 981.4354106696993 67.59735752769696 L 981.4008426842784 67.71240624077679 L 981.3637314526727 67.82729293783784 L 981.3240806859746 67.94200613030618 L 981.2818943492277 68.05653434695814 L 981.2371766610304 68.1708661350675 L 981.1899320931144 68.28499006155073 L 981.140165369897 68.39889471411026 L 981.0878814680091 68.51256870237577 L 981.0330856157973 68.62600065904317 L 980.9757832928012 68.73917924101131 L 980.9159802292054 68.85209313051632 L 980.8536824052662 68.96473103626333 L 980.7888960507144 69.07708169455563 L 980.7216276441312 69.18913387042103 L 980.6518839123013 69.3008763587353 L 980.5796718295397 69.41229798534273 L 980.5049986169947 69.52338760817354 L 980.4278717419252 69.63413411835798 L 980.3482989169543 69.74452644133734 L 980.2662880992983 69.85455353797133 L 980.1818474899708 69.96420440564195 L 980.094985532962 70.07346807935382 L 980.0057109143955 70.18233363283062 L 979.9140325616587 70.29079017960771 L 979.8199596425104 70.39882687412083 L 979.7235015641643 70.50643291279052 L 979.6246679723475 70.6135975351026 L 979.5234687503372 70.72031002468414 L 979.4199140179711 70.82655971037511 L 979.3140141306362 70.93233596729549 L 979.205779678233 71.03762821790771 L 979.0952214841162 71.14242593307448 L 978.9823506040136 71.2467186331116 L 978.8671783249189 71.35049588883598 L 978.749716163964 71.45374732260854 L 978.6299758672671 71.55646260937192 L 978.5079694087583 71.65863147768304 L 978.3837089889815 71.76024371074024 L 978.2572070338753 71.86128914740488 L 978.1284761935298 71.96175768321748 L 977.9975293409216 72.0616392714082 L 977.864379570627 72.16092392390144 L 977.7290401975121 72.25960171231469 L 977.5915247554012 72.35766276895136 L 977.451846995724 72.45509728778748 L 977.3100208861404 72.55189552545237 L 977.1660606091427 72.64804780220294 L 977.0199805606389 72.74354450289161 L 976.871795348512 72.83837607792793 L 976.7215197911598 72.93253304423341 L 976.5691689160128 73.02600598618986 L 976.4147579580316 73.118785556581 L 976.2583023581832 73.21086247752712 L 976.0998177618973 73.30222754141282 L 975.9393200175014 73.39287161180788 L 975.7768251746362 73.48278562438078 L 975.6123494826505 73.5719605878052 L 975.4459093889767 73.66038758465909 L 975.2775215374852 73.74805777231649 L 975.107202766821 73.83496238383165 L 974.9349701087191 73.92109272881588 L 974.7608407863019 74.00644019430642 L 974.5848322123564 74.09099624562788 L 974.4069619875934 74.17475242724555 L 974.2272478988872 74.2577003636111 L 974.0457079174969 74.33983176 L 973.8623601972691 74.42113840334106 L 973.6772230728235 74.50161216303769 L 973.4903150577179 74.58124499178099 L 973.3016548425982 74.66002892635444 L 973.1112612933285 74.73795608843025 L 972.9191534491055 74.81501868535715 L 972.7253505205531 74.89120901093965 L 972.5298718878028 74.9665194462087 L 972.3327370985551 75.0409424601835 L 972.1339658661244 75.11447061062472 L 971.9335780674685 75.18709654477856 L 971.7315937412002 75.25881300011211 L 971.5280330855838 75.32961280503964 L 971.3229164565154 75.39948887963963 L 971.1162643654866 75.46843423636287 L 970.9080974775346 75.53644198073111 L 970.6984366091748 75.60350531202661 L 970.487302726319 75.66961752397214 L 970.2747169421797 75.73477200540155 L 970.0607005151583 75.79896224092104 L 969.8452748467189 75.86218181156053 L 969.6284614792489 75.92442439541566 L 969.4102820939045 75.98568376827987 L 969.1907585084423 76.04595380426694 L 968.969912675038 76.10522847642352 L 968.7477666780908 76.16350185733178 L 968.5243427320153 76.22076811970217 L 968.29966317902 76.27702153695618 L 968.0737504868728 76.33225648379899 L 967.8466272466549 76.38646743678191 L 967.6183161705007 76.43964897485485 L 967.388840089328 76.49179577990829 L 967.1582219505533 76.54290263730519 L 966.9264848157986 76.59296443640241 L 966.6936518585841 76.64197617106174 L 966.4597463620114 76.68993294015058 L 966.2247917164353 76.73682994803197 L 965.9888114171248 76.7826625050442 L 965.7518290619129 76.82742602796976 L 965.5138683488377 76.87111604049369 L 965.2749530737723 76.91372817365111 L 965.0351071280451 76.95525816626423 L 964.7943544960506 76.99570186536839 L 964.5527192528516 77.03505522662739 L 964.310225561771 77.0733143147379 L 964.0668976719758 77.11047530382298 L 963.8227599160522 77.1465344778147 L 963.5778367075724 77.1814882308257 L 963.3321525386531 77.21533306750982 L 963.0857319775064 77.24806560341159 L 962.8385996659831 77.2796825653047 L 962.5907803171086 77.31018079151929 L 962.342298712611 77.33955723225817 L 962.0931797004438 77.36780894990176 L 961.8434481923007 77.3949331193018 L 961.5931291611242 77.42092702806399 L 961.342247638609 77.44578807681908 L 961.0908287126982 77.46951377948295 L 960.8388975250749 77.49210176350509 L 960.586479268648 77.51354977010593 L 960.3335991850325 77.53385565450264 L 960.0802825620265 77.55301738612376 L 959.8265547310808 77.57103304881205 L 959.5724410647672 77.58790084101629 L 959.3179669742406 77.6036190759713 L 959.0631579066979 77.61818618186668 L 958.8080393428337 77.63160070200398 L 958.5526367942916 77.64386129494237 L 958.2969758011136 77.65496673463277 L 958.0410819291862 77.66491591054046 L 957.7849807676831 77.67370782775615 L 957.5286979265072 77.68134160709545 L 957.2722590337289 77.68781648518677 L 957.015689733024 77.6931318145477 L 956.7590156811085 77.69728706364975 L 956.502262545174 77.70028181697145 L 956.2454560003197 77.70211577504 L 955.9886217269865 77.70278875446107 L 955.7317854083875 77.70230068793732 L 955.4749727279406 77.70065162427498 L 955.2182093666997 77.69784172837903 L 954.9615210007872 77.69387128123674 L 954.7049332988256 77.68874067988952 L 954.4484719193713 77.68245043739319 L 954.1921625083486 77.6750011827668 L 953.936030696485 77.66639366092959 L 953.6801020967481 77.65662873262656 L 953.4244023017848 77.64570737434241 L 953.1689568813613 77.63363067820387 L 952.913791379807 77.6203998518705 L 952.6589313134592 77.60601621841388 L 952.4044021681124 77.59048121618541 L 952.1502293964688 77.57379639867233 L 951.8964384155939 77.5559634343425 L 951.6430546043742 77.53698410647749 L 951.3901033009797 77.51686031299428 L 951.1376098003301 77.49559406625544 L 950.8855993515648 77.47318749286792 L 950.6340971555187 77.44964283347039 L 950.383128362202 77.42496244250918 L 950.1327180682848 77.3991487880028 L 949.8828913145877 77.3722044512952 L 949.6336730835782 77.3441321267976 L 949.3850882968713 77.31493462171906 L 949.1371618127388 77.28461485578573 L 948.8899184236225 77.25317586094897 L 948.6433828536551 77.22062078108203 L 948.3975797561884 77.18695287166581 L 948.1525337113271 77.15217549946317 L 947.9082692234715 77.11629214218235 L 947.664810718867 77.07930638812917 L 947.4221825431611 77.04122193584823 L 947.180408958969 77.002042593753 L 946.9395141434478 76.96177227974506 L 946.6995221858784 76.92041502082225 L 946.4604570852564 76.87797495267598 L 946.2223427478928 76.83445631927773 L 945.9852029850227 76.78986347245454 L 945.749061510425 76.74420087145396 L 945.5139419380502 76.69747308249802 L 945.2798677796596 76.64968477832667 L 945.0468624424741 76.60084073773052 L 944.8149492268333 76.55094584507293 L 944.5841513238652 76.50000508980158 L 944.3544918131681 76.44802356594954 L 944.1259936605015 76.39500647162588 L 943.8986797154903 76.34095910849587 L 943.6725727093395 76.28588688125075 L 943.4476952525615 76.22979529706737 L 943.2240698327145 76.1726899650574 L 943.0017188121539 76.11457659570647 L 942.7806644257968 76.05546100030305 L 942.5609287788973 75.99534909035746 L 942.3425338448372 75.9342468770106 L 942.1255014629279 75.87216047043285 L 941.9098533362267 75.80909607921315 L 941.6956110293665 75.74506000973807 L 941.4827959663996 75.6800586655612 L 941.2714294286548 75.61409854676278 L 941.0615325526097 75.54718624929971 L 940.8531263277772 75.47932846434601 L 940.646231594606 75.4105319776236 L 940.4408690423969 75.34080366872384 L 940.2370592072341 75.2701505104195 L 940.0348224699313 75.19857956796754 L 939.8341790539937 75.12609799840256 L 939.6351490235955 75.05271304982111 L 939.4377522815743 74.9784320606569 L 939.2420085674393 74.90326245894695 L 939.0479374553992 74.82721176158879 L 938.8555583524031 74.75028757358876 L 938.6648904962013 74.67249758730159 L 938.4759529534206 74.59384958166106 L 938.2887646176574 74.51435142140221 L 938.1033442075897 74.4340110562748 L 937.9197102651037 74.3528365202484 L 937.7378811534409 74.27083593070897 L 937.5578750553607 74.18801748764713 L 937.3797099713231 74.10438947283818 L 937.2034037176878 74.01996024901389 L 937.0289739249336 73.9347382590263 L 936.8564380358939 73.84873202500339 L 936.6858133040143 73.76195014749688 L 936.5171167916257 73.67440130462221 L 936.3503653682385 73.58609425119072 L 936.1855757088563 73.49703781783415 L 936.0227642923077 73.40724091012163 L 935.8619473995986 73.3167125076691 L 935.7031411122844 73.22546166324135 L 935.5463613108614 73.1334975018468 L 935.391623673179 73.04082921982494 L 935.2389436728722 72.94746608392677 L 935.0883365778136 72.85341743038806 L 934.9398174485875 72.75869266399579 L 934.7934011369828 72.66330125714767 L 934.6491022845087 72.56725274890488 L 934.5069353209301 72.4705567440382 L 934.3669144628251 72.37322291206758 L 934.2290537121628 72.27526098629505 L 934.0933668549033 72.17668076283158 L 933.9598674596192 72.07749209961737 L 933.8285688761388 71.97770491543608 L 933.6994842342111 71.87732918892296 L 933.5726264421928 71.77637495756703 L 933.4480081857572 71.6748523167073 L 933.3256419266263 71.57277141852325 L 933.2055399013238 71.47014247101961 L 933.0877141199524 71.36697573700563 L 932.9721763649918 71.26328153306875 L 932.8589381901213 71.15907022854292 L 932.7480109190642 71.05435224447177 L 932.6394056444549 70.94913805256644 L 932.5331332267306 70.84343817415844 L 932.4292042930442 70.73726317914753 L 932.3276292362028 70.63062368494474 L 932.2284182136274 70.5235303554106 L 932.1315811463372 70.41599389978884 L 932.0371277179587 70.3080250716354 L 931.9450673737558 70.19963466774314 L 931.8554093196863 70.0908335270621 L 931.7681625214807 69.98163252961568 L 931.6833357037464 69.87204259541265 L 931.6009373490941 69.76207468335508 L 931.520975697291 69.65173979014256 L 931.4434587444355 69.54104894917243 L 931.3683942421582 69.43001322943658 L 931.2957896968468 69.31864373441445 L 931.2256523688955 69.20695160096271 L 931.1579892719783 69.09494799820165 L 931.0928071723489 68.98264412639821 L 931.0301125881626 68.87005121584596 L 930.9699117888259 68.75718052574217 L 930.9122107943683 68.64404334306175 L 930.8570153748414 68.53065098142872 L 930.8043310497409 68.41701477998473 L 930.7541630874556 68.30314610225523 L 930.7065165047397 68.1890563350131 L 930.6613960662121 68.07475688714001 L 930.6188062838788 67.96025918848548 L 930.5787514166826 67.84557468872397 L 930.5412354700769 67.73071485620987 L 930.506262195625 67.61569117683074 L 930.4738350906252 67.50051515285864 L 930.4439573977611 67.3851983018 L 930.416632104777 67.26975215524384 L 930.3918619441795 67.15418825770858 L 930.3696493929639 67.0385181654877 L 930.3499966723668 66.92275344549402 L 930.3329057476442 66.80690567410306 L 930.3183783278739 66.69098643599544 L 930.306415865786 66.57500732299836 L 930.2970195576166 66.45897993292647 L 930.2901903429889 66.34291586842208 L 930.2859289048185 66.22682673579494 L 930.2842356692457 66.11072414386156 L 930.2851108055927 65.99461970278438 L 930.2885542263466 65.87852502291076 L 930.2945655871681 65.76245171361194 L 930.3031442869262 65.64641138212212 L 930.314289467758 65.53041563237775 L 930.3280000151549 65.41447606385715 L 930.3442745580734 65.29860427042055 L 930.3631114690728 65.18281183915073 L 930.3845088644777 65.06711034919432 L 930.4084646045663 64.95151137060391 L 930.4349762937849 64.83602646318103 L 930.4640412809862 64.72066717532017 L 930.495656659696 64.60544504285399 L 930.5298192684028 64.49037158789972 L 930.566525690874 64.37545831770696 L 930.6057722564981 64.26071672350696 L 930.6475550406511 64.14615827936355 L 930.6918698650895 64.03179444102564 L 930.7387122983679 63.917636644781794 L 930.7880776562818 63.80369630631649 L 930.8399610023366 63.68998481956863 L 930.894357148241 63.57651355559212 L 930.9512606544257 63.46329386141881 L 931.0106658305875 63.35033705892376 L 931.0725667362584 63.237654443693096 L 931.1369571813991 63.125257283894435 L 931.2038307270191 63.0131568191501 L 931.2731806858194 62.90136425941313 L 931.3450001228618 62.78989078384635 L 931.4192818562627 62.67874753970443 L 931.4960184579105 62.56794564121916 L 931.5752022542091 62.45749616848805 L 931.6568253268447 62.34741016636633 L 931.7408795135781 62.23769864336248 L 931.8273564090607 62.12837257053737 L 931.9162473656751 62.01944288040719 L 932.0075434943994 61.91092046585016 L 932.1012356656972 61.80281617901732 L 932.1973145104294 61.69514083024725 L 932.2957704207913 61.587905186985104 L 932.3965935512741 61.48111997270585 L 932.4997738196489 61.37479586584192 L 932.6053009079745 61.2689434987154 L 932.7131642636303 61.16357345647479 L 932.8233531003706 61.05869627603652 L 932.9358563994034 60.954322445031224 L 933.0506629104926 60.85046240075503 L 933.1677611530829 60.74712652912581 L 933.2871394174475 60.644325163644616 L 933.4087857658594 60.54206858436233 L 933.5326880337851 60.440367016851674 L 933.6588338311013 60.339230631184634 L 933.7872105433332 60.2386695409155 L 933.9178053329166 60.13869380206951 L 934.0506051404813 60.03931341213722 L 934.1855966861573 59.94053830907482 L 934.3227664709025 59.84237837031029 L 934.4621007778528 59.74484341175572 L 934.6035856736935 59.64794318682568 L 934.747207010053 59.55168738546191 L 934.8929504249172 59.45608563316434 L 935.0408013440663 59.361147490028536 L 935.1907449825314 59.266882449789684 L 935.3427663460737 59.173299938873264 L 935.4968502326835 59.08040931545237 L 935.6529812341006 58.988219868511955 L 935.811143737355 58.89674081691987 L 935.971321926328 58.805981308505054 L 936.1334997833343 58.715950419142715 L 936.2976610907233 58.62665715184676 L 936.463789432501 58.5381104358695 L 936.631868195972 58.450319125808754 L 936.8018805733996 58.36329200072237 L 936.9738095636878 58.277037763250334 L 937.1476379740811 58.19156503874451 L 937.3233484218832 58.10688237440612 L 937.5009233361957 58.022998238431036 L 937.680344959675 57.93992101916295 L 937.8615953503087 57.85765902425456 L 938.0446563832082 57.776220479836795 L 938.2295097524233 57.695613529696246 L 938.4161369727708 57.61584623446075 L 938.6045193816843 57.53692657079335 L 938.7946381410799 57.45886243059466 L 938.98647423924 57.38166162021363 L 939.1800084927147 57.30533185966698 L 939.37522154824 57.229880781867145 L 939.5720938846729 57.155315931859036 L 939.7706058149439 57.08164476606552 L 939.9707374880254 57.008874651541774 L 940.1724688909168 56.93701286523862 L 940.375779850646 56.866066593274795 L 940.5806500362864 56.79604293021838 L 940.7870589609902 56.726948878377314 L 940.9949859840369 56.658791347099225 L 941.2044103128975 56.591577152080426 L 941.4153110053136 56.525313014684414 L 941.6276669713918 56.4600055612697 L 941.8414569757123 56.39566132252722 L 942.056659639453 56.332286732827214 L 942.2732534425267 56.26988812957585 L 942.4912167257336 56.20847175258143 L 942.710527692927 56.14804374343051 L 942.9311644131932 56.08861014487363 L 943.1531048230438 56.03017690022111 L 943.3763267286228 55.972749852748734 L 943.6008078079255 55.91633474511339 L 943.8265256130314 55.86093721877882 L 944.0534575723478 55.80656281345151 L 944.281580992868 55.753216966526665 L 944.5108730624402 55.70090501254454 L 944.7413108520481 55.649632182656916 L 944.972871318105 55.59940360410408 L 945.2055313047574 55.550224299702016 L 945.4392675462003 55.50209918734018 L 945.6740566690045 55.45503307948971 L 945.9098751944533 55.40903068272217 L 946.1466995408906 55.3640965972389 L 946.3845060260792 55.320235316411 L 946.6232708695687 55.27745122633 L 946.8629701950739 55.23574860536927 L 947.1035800328617 55.19513162375613 L 947.345076322149 55.15560434315492 L 947.5874349135081 55.11717071626074 L 947.8306315712819 55.07983458640426 L 948.0746419760071 55.04359968716735 L 948.3194417268468 55.00846964200974 L 948.5650063440297 54.974447963906684 L 948.8113112712988 54.941538054997615 L 949.0583318783667 54.90974320624601 L 949.3060434633785 54.87906659711026 L 949.5544212553821 54.849511295225696 L 949.8034404168052 54.82108025609789 L 950.0530760459393 54.79377632280706 L 950.3033031794295 54.76760222572378 L 950.554096794771 54.742560582235946 L 950.8054318128111 54.71865389648704 L 951.0572831002576 54.695884559125716 L 951.3096254721916 54.674254847066734 L 951.5624336945862 54.65376692326327 L 951.8156824868297 54.63442283649064 L 952.0693465242541 54.616224521141405 L 952.323400440667 54.599173797031916 L 952.5778188308883 54.583272369220396 L 952.8325762532912 54.56852182783636 L 953.0876472323457 54.55492364792166 L 953.3430062611665 54.54247918928296 L 953.5986278040633 54.53118969635575 L 953.8544862990951 54.52105629807991 L 954.1105561606255 54.51208000778683 L 954.3668117818817 54.504261723098054 L 954.623227537515 54.497602225835536 L 954.8797777861639 54.49210218194346 L 955.136436873017 54.487762141421626 L 955.3931791323796 54.484582538270466 L 955.6499788902396 54.482563690447655 L 955.9068104668354 54.481705799836284 L 956.1636481792233 54.4820089522247 L 956.4204663438461 54.48347311729792 L 956.6772392791013 54.486098148640664 L 956.9339413079093 54.48988378375197 L 957.1905467602813 54.49482964407149 L 957.4470299758858 54.50093523501731 L 957.703365306615 54.50819994603543 L 957.9595271191494 54.5166230506608 L 958.2154897975213 54.52620370658997 L 958.4712277456761 54.53694095576534 L 958.7267153900319 54.54883372447093 L 958.9819271820376 54.56188082343979 L 959.2368376007264 54.5760809479729 L 959.4914211552689 54.591432678069616 L 959.7456523875218 54.607934478569746 L 959.9995058745737 54.62558469930698 L 960.2529562312876 54.644381575273954 L 960.5059781128388 54.66432322679874 L 960.7585462172501 54.685407659732796 L 961.0106352879217 54.70763276565041 L 961.2622201161563 54.7309963220595 L 961.5132755436808 54.75549599262389 L 961.7637764651619 54.78112932739696 L 962.013697830716 54.80789376306658 L 962.2630146484148 54.83578662321149 L 962.5117019867844 54.86480511856891 L 962.7597349772981 54.89494634731351 L 963.0070888168636 54.9262072953475 L 963.2537387703031 54.95858483660216 L 963.4996601728267 54.99207573335032 L 963.7448284324992 55.02667663653023 L 963.9892190326989 55.0623840860804 L 964.2328075345692 55.09919451128564 L 964.4755695794634 55.13710423113409 L 964.7174808913788 55.17610945468536 L 964.9585172793861 55.2162062814496 L 965.1986546400474 55.25739070177756 L 965.4378689598266 55.29965859726151 L 965.676136317491 55.34300574114714 L 965.9134328865035 55.38742779875617 L 966.149734937405 55.43292032791987 L 966.3850188401873 55.47947877942322 L 966.6192610666561 55.527098497459875 L 966.8524381927841 55.57577472009772 L 967.0845269010529 55.62550257975505 L 967.315503982785 55.67627710368733 L 967.5453463404648 55.728093214484495 L 967.7740309900481 55.78094573057864 L 968.0015350632605 55.83482936676219 L 968.2278358098843 55.88973873471644 L 968.4529106000332 55.945668343550345 L 968.6767369264161 56.002612600349636 L 968.8992924065866 56.06056581073608 L 969.1205547851822 56.11952217943694 L 969.3405019361495 56.179475810864474 L 969.5591118649567 56.24042070970549 L 969.776362710793 56.30235078152091 L 969.9922327487549 56.36525983335514 L 970.2067003920185 56.42914157435544 L 970.4197441939982 56.49398961640093 L 970.6313428504914 56.55979747474145 L 970.8414752018087 56.62655856864601 L 971.0501202348901 56.69426622206085 L 971.2572570854061 56.76291366427705 L 971.4628650398444 56.83249403060759 L 971.6669235375807 56.903000363073836 L 971.8694121729355 56.97442561110128 L 972.0703106972139 57.04676263222465 L 972.2695990207309 57.120004192802114 L 972.4672572148202 57.19414296873864 L 972.663265513827 57.26917154621842 L 972.8576043170849 57.34508242244624 L 973.0502541908755 57.421868006397716 L 973.2411958703719 57.49952061957846 L 973.4304102615654 57.57803249679186 L 973.6178784431743 57.657395786915615 L 973.8035816685369 57.73760255368685 L 973.9875013674854 57.81864477649573 L 974.1696191482031 57.9005143511875 L 974.3499167990636 57.983203090872934 L 974.5283762904522 58.06670272674695 L 974.7049797765685 58.15100490891555 L 974.8797095972109 58.23610120723078 L 975.0525482795431 58.32198311213371 L 975.2234785398409 58.40864203550541 L 975.3924832852206 58.49606931152578 L 975.5595456153485 58.58425619754006 L 975.7246488241309 58.67319387493313 L 975.8877764013845 58.76287345001139 L 976.0489120344874 58.853285954892044 L 976.2080396100107 58.944422348399954 L 976.3651432153295 59.03627351697172 L 976.5202071402139 59.12883027556701 L 976.6732158784009 59.222083368587114 L 976.8241541291441 59.31602347080043 L 976.9730067987442 59.41064118827504 L 977.1197590020583 59.50592705931801 L 977.2643960639883 59.60187155542167 L 977.4069035209487 59.698465082216345 L 977.5472671223124 59.79569798042986 L 977.6854728318364 59.89356052685341 L 977.8215068290647 59.99204293531392 L 977.955355510711 60.0911353576526 L 978.0870054920188 60.1908278847098 L 978.2164436080996 60.29111054731588 L 978.3436569152497 60.39197331728817 L 978.4686326922442 60.4934061084337 L 978.5913584416098 60.5953987775579 L 978.7118218908737 60.69794112547884 L 978.8300109937915 60.80102289804719 L 978.9459139315511 60.90463378717158 L 979.0595191139556 61.00876343184945 L 979.1708151805814 61.113401419203115 L 979.2797910019144 61.218537285521016 L 979.3864356804635 61.32416051730415 L 979.4907385518495 61.43026055231736 L 979.5926891858724 61.53682678064554 L 979.6922773875535 61.643848545754686 L 979.7894931981558 61.75131514555746 L 979.8843268961793 61.85921583348345 L 979.9767689983331 61.96753981955375 L 980.0668102604841 62.07627627146005 L 980.1544416785811 62.18541431564777 L 980.2396544895553 62.29494303840343 L 980.3224401721965 62.404851486946036 L 980.4027904480056 62.515128670522316 L 980.4806972820219 62.62576356150581 L 980.556152883627 62.736745096499625 L 980.6291497073234 62.84806217744274 L 980.6996804534899 62.959703672719826 L 980.7677380691105 63.07165841827438 L 980.8333157484801 63.18391521872516 L 980.8964069338858 63.29646284848565 L 980.9570053162614 63.409290052886675 L 981.0151048358193 63.52238554930181 L 981.0706996826559 63.63573802827567 L 981.1237842973328 63.7493361546548 L 981.1743533714327 63.86316856872124 L 981.2224018480906 63.97722388732845 L 981.2679249224987 64.09149070503959 L 981.3109180423875 64.20595759526815 L 981.3513769084808 64.32061311142046 L 981.3892974749258 64.43544578804045 L 981.4246759496973 64.55044414195618 L 981.4575087949776 64.66559667342807 L 981.4877927275091 64.78089186729893 L 981.5155247189242 64.89631819414548 L 981.5407019960467 65.0118641114312 L 981.5633220411698 65.12751806466063 L 981.5833825923079 65.24326848853487 L 981.6008816434227 65.35910380810796 L 981.6158174446235 65.47501243994449 L 981.6281885023427 65.59098279327785 L 981.6379935794849 65.70700327116936 L 981.6452316955505 65.8230622716679 L 981.6499021267339 65.93914818897015 L 981.6520044059959 66.05524941458111 M 981.6521347029792 103.0349230918 L 981.6508505153906 103.15102675555636 L 981.6469980810426 103.2671188090431 L 981.6405777851753 103.3831876431516 L 981.6315902698129 103.4992216510952 L 981.6200364336996 103.61520922956979 L 981.6059174322094 103.73113877991415 L 981.5892346772305 103.8469987092699 L 981.5699898370245 103.9627774317406 L 981.5481848360596 104.07846336955055 L 981.5238218548176 104.19404495420231 L 981.4969033295763 104.30951062763378 L 981.4674319521658 104.42484884337381 L 981.4354106696993 104.54004806769696 L 981.4008426842784 104.65509678077679 L 981.3637314526727 104.76998347783784 L 981.3240806859746 104.88469667030618 L 981.2818943492277 104.99922488695815 L 981.2371766610304 105.1135566750675 L 981.1899320931144 105.22768060155073 L 981.140165369897 105.34158525411026 L 981.0878814680091 105.45525924237577 L 981.0330856157973 105.56869119904317 L 980.9757832928012 105.68186978101132 L 980.9159802292054 105.79478367051632 L 980.8536824052662 105.90742157626333 L 980.7888960507144 106.01977223455563 L 980.7216276441312 106.13182441042103 L 980.6518839123013 106.2435668987353 L 980.5796718295397 106.35498852534273 L 980.5049986169947 106.46607814817354 L 980.4278717419252 106.57682465835798 L 980.3482989169543 106.68721698133734 L 980.2662880992983 106.79724407797133 L 980.1818474899708 106.90689494564195 L 980.094985532962 107.01615861935382 L 980.0057109143955 107.12502417283062 L 979.9140325616587 107.23348071960771 L 979.8199596425104 107.34151741412083 L 979.7235015641643 107.44912345279052 L 979.6246679723475 107.5562880751026 L 979.5234687503372 107.66300056468414 L 979.4199140179711 107.76925025037511 L 979.3140141306362 107.87502650729549 L 979.205779678233 107.98031875790771 L 979.0952214841162 108.08511647307448 L 978.9823506040136 108.1894091731116 L 978.8671783249189 108.29318642883598 L 978.749716163964 108.39643786260854 L 978.6299758672671 108.49915314937192 L 978.5079694087583 108.60132201768305 L 978.3837089889815 108.70293425074024 L 978.2572070338753 108.80397968740488 L 978.1284761935298 108.90444822321749 L 977.9975293409216 109.0043298114082 L 977.864379570627 109.10361446390144 L 977.7290401975121 109.20229225231469 L 977.5915247554012 109.30035330895136 L 977.451846995724 109.39778782778748 L 977.3100208861404 109.49458606545237 L 977.1660606091427 109.59073834220294 L 977.0199805606389 109.68623504289161 L 976.871795348512 109.78106661792793 L 976.7215197911598 109.87522358423341 L 976.5691689160128 109.96869652618986 L 976.4147579580316 110.061476096581 L 976.2583023581832 110.15355301752712 L 976.0998177618973 110.24491808141282 L 975.9393200175014 110.33556215180788 L 975.7768251746362 110.42547616438078 L 975.6123494826505 110.5146511278052 L 975.4459093889767 110.60307812465909 L 975.2775215374852 110.69074831231649 L 975.107202766821 110.77765292383165 L 974.9349701087191 110.86378326881588 L 974.7608407863019 110.94913073430642 L 974.5848322123564 111.03368678562788 L 974.4069619875934 111.11744296724555 L 974.2272478988872 111.2003909036111 L 974.0457079174969 111.2825223 L 973.8623601972691 111.36382894334106 L 973.6772230728235 111.44430270303769 L 973.4903150577179 111.52393553178099 L 973.3016548425982 111.60271946635444 L 973.1112612933285 111.68064662843025 L 972.9191534491055 111.75770922535715 L 972.7253505205531 111.83389955093965 L 972.5298718878028 111.9092099862087 L 972.3327370985551 111.9836330001835 L 972.1339658661244 112.05716115062472 L 971.9335780674685 112.12978708477856 L 971.7315937412002 112.20150354011211 L 971.5280330855838 112.27230334503965 L 971.3229164565154 112.34217941963963 L 971.1162643654866 112.41112477636287 L 970.9080974775346 112.47913252073111 L 970.6984366091748 112.54619585202661 L 970.487302726319 112.61230806397214 L 970.2747169421797 112.67746254540155 L 970.0607005151583 112.74165278092104 L 969.8452748467189 112.80487235156053 L 969.6284614792489 112.86711493541566 L 969.4102820939045 112.92837430827987 L 969.1907585084423 112.98864434426694 L 968.969912675038 113.04791901642352 L 968.7477666780908 113.10619239733178 L 968.5243427320153 113.16345865970217 L 968.29966317902 113.21971207695618 L 968.0737504868728 113.27494702379899 L 967.8466272466549 113.32915797678191 L 967.6183161705007 113.38233951485485 L 967.388840089328 113.43448631990829 L 967.1582219505533 113.48559317730519 L 966.9264848157986 113.53565497640241 L 966.6936518585841 113.58466671106174 L 966.4597463620114 113.63262348015058 L 966.2247917164353 113.67952048803197 L 965.9888114171248 113.7253530450442 L 965.7518290619129 113.77011656796977 L 965.5138683488377 113.81380658049369 L 965.2749530737723 113.85641871365111 L 965.0351071280451 113.89794870626423 L 964.7943544960506 113.93839240536839 L 964.5527192528516 113.9777457666274 L 964.310225561771 114.0160048547379 L 964.0668976719758 114.05316584382298 L 963.8227599160522 114.0892250178147 L 963.5778367075724 114.12417877082571 L 963.3321525386531 114.15802360750982 L 963.0857319775064 114.19075614341159 L 962.8385996659831 114.2223731053047 L 962.5907803171086 114.25287133151929 L 962.342298712611 114.28224777225817 L 962.0931797004438 114.31049948990176 L 961.8434481923007 114.3376236593018 L 961.5931291611242 114.36361756806399 L 961.342247638609 114.38847861681909 L 961.0908287126982 114.41220431948295 L 960.8388975250749 114.43479230350509 L 960.586479268648 114.45624031010593 L 960.3335991850325 114.47654619450265 L 960.0802825620265 114.49570792612376 L 959.8265547310808 114.51372358881206 L 959.5724410647672 114.5305913810163 L 959.3179669742406 114.5463096159713 L 959.0631579066979 114.56087672186668 L 958.8080393428337 114.57429124200398 L 958.5526367942916 114.58655183494237 L 958.2969758011136 114.59765727463277 L 958.0410819291862 114.60760645054046 L 957.7849807676831 114.61639836775615 L 957.5286979265072 114.62403214709545 L 957.2722590337289 114.63050702518677 L 957.015689733024 114.6358223545477 L 956.7590156811085 114.63997760364975 L 956.502262545174 114.64297235697146 L 956.2454560003197 114.64480631504 L 955.9886217269865 114.64547929446107 L 955.7317854083875 114.64499122793733 L 955.4749727279406 114.64334216427498 L 955.2182093666997 114.64053226837903 L 954.9615210007872 114.63656182123674 L 954.7049332988256 114.63143121988952 L 954.4484719193713 114.62514097739319 L 954.1921625083486 114.6176917227668 L 953.936030696485 114.60908420092959 L 953.6801020967481 114.59931927262656 L 953.4244023017848 114.58839791434241 L 953.1689568813613 114.57632121820387 L 952.913791379807 114.5630903918705 L 952.6589313134592 114.54870675841389 L 952.4044021681124 114.53317175618541 L 952.1502293964688 114.51648693867233 L 951.8964384155939 114.4986539743425 L 951.6430546043742 114.47967464647749 L 951.3901033009797 114.45955085299428 L 951.1376098003301 114.43828460625544 L 950.8855993515648 114.41587803286792 L 950.6340971555187 114.3923333734704 L 950.383128362202 114.36765298250918 L 950.1327180682848 114.3418393280028 L 949.8828913145877 114.3148949912952 L 949.6336730835782 114.2868226667976 L 949.3850882968713 114.25762516171906 L 949.1371618127388 114.22730539578573 L 948.8899184236225 114.19586640094897 L 948.6433828536551 114.16331132108203 L 948.3975797561884 114.12964341166581 L 948.1525337113271 114.09486603946317 L 947.9082692234715 114.05898268218235 L 947.664810718867 114.02199692812917 L 947.4221825431611 113.98391247584823 L 947.180408958969 113.944733133753 L 946.9395141434478 113.90446281974506 L 946.6995221858784 113.86310556082225 L 946.4604570852564 113.82066549267599 L 946.2223427478928 113.77714685927774 L 945.9852029850227 113.73255401245454 L 945.749061510425 113.68689141145396 L 945.5139419380502 113.64016362249802 L 945.2798677796596 113.59237531832667 L 945.0468624424741 113.54353127773052 L 944.8149492268333 113.49363638507293 L 944.5841513238652 113.44269562980158 L 944.3544918131681 113.39071410594954 L 944.1259936605015 113.33769701162588 L 943.8986797154903 113.28364964849587 L 943.6725727093395 113.22857742125075 L 943.4476952525615 113.17248583706737 L 943.2240698327145 113.1153805050574 L 943.0017188121539 113.05726713570647 L 942.7806644257968 112.99815154030306 L 942.5609287788973 112.93803963035747 L 942.3425338448372 112.8769374170106 L 942.1255014629279 112.81485101043285 L 941.9098533362267 112.75178661921315 L 941.6956110293665 112.68775054973807 L 941.4827959663996 112.6227492055612 L 941.2714294286548 112.55678908676278 L 941.0615325526097 112.48987678929971 L 940.8531263277772 112.42201900434601 L 940.646231594606 112.3532225176236 L 940.4408690423969 112.28349420872384 L 940.2370592072341 112.2128410504195 L 940.0348224699313 112.14127010796754 L 939.8341790539937 112.06878853840256 L 939.6351490235955 111.99540358982111 L 939.4377522815743 111.9211226006569 L 939.2420085674393 111.84595299894696 L 939.0479374553992 111.76990230158879 L 938.8555583524031 111.69297811358877 L 938.6648904962013 111.6151881273016 L 938.4759529534206 111.53654012166106 L 938.2887646176574 111.45704196140221 L 938.1033442075897 111.3767015962748 L 937.9197102651037 111.2955270602484 L 937.7378811534409 111.21352647070897 L 937.5578750553607 111.13070802764713 L 937.3797099713231 111.04708001283818 L 937.2034037176878 110.96265078901389 L 937.0289739249336 110.8774287990263 L 936.8564380358939 110.79142256500339 L 936.6858133040143 110.70464068749688 L 936.5171167916257 110.61709184462221 L 936.3503653682385 110.52878479119072 L 936.1855757088563 110.43972835783416 L 936.0227642923077 110.34993145012163 L 935.8619473995986 110.2594030476691 L 935.7031411122844 110.16815220324135 L 935.5463613108614 110.0761880418468 L 935.391623673179 109.98351975982494 L 935.2389436728722 109.89015662392677 L 935.0883365778136 109.79610797038806 L 934.9398174485875 109.70138320399579 L 934.7934011369828 109.60599179714767 L 934.6491022845087 109.50994328890488 L 934.5069353209301 109.4132472840382 L 934.3669144628251 109.31591345206758 L 934.2290537121628 109.21795152629505 L 934.0933668549033 109.11937130283158 L 933.9598674596192 109.02018263961737 L 933.8285688761388 108.92039545543608 L 933.6994842342111 108.82001972892296 L 933.5726264421928 108.71906549756703 L 933.4480081857572 108.6175428567073 L 933.3256419266263 108.51546195852325 L 933.2055399013238 108.41283301101961 L 933.0877141199524 108.30966627700563 L 932.9721763649918 108.20597207306875 L 932.8589381901213 108.10176076854292 L 932.7480109190642 107.99704278447177 L 932.6394056444549 107.89182859256644 L 932.5331332267306 107.78612871415844 L 932.4292042930442 107.67995371914753 L 932.3276292362028 107.57331422494474 L 932.2284182136274 107.4662208954106 L 932.1315811463372 107.35868443978885 L 932.0371277179587 107.2507156116354 L 931.9450673737558 107.14232520774314 L 931.8554093196863 107.0335240670621 L 931.7681625214807 106.92432306961568 L 931.6833357037464 106.81473313541265 L 931.6009373490941 106.70476522335508 L 931.520975697291 106.59443033014256 L 931.4434587444355 106.48373948917244 L 931.3683942421582 106.37270376943658 L 931.2957896968468 106.26133427441445 L 931.2256523688955 106.14964214096271 L 931.1579892719783 106.03763853820165 L 931.0928071723489 105.92533466639821 L 931.0301125881626 105.81274175584596 L 930.9699117888259 105.69987106574217 L 930.9122107943683 105.58673388306175 L 930.8570153748414 105.47334152142872 L 930.8043310497409 105.35970531998473 L 930.7541630874556 105.24583664225523 L 930.7065165047397 105.1317468750131 L 930.6613960662121 105.01744742714001 L 930.6188062838788 104.90294972848548 L 930.5787514166826 104.78826522872397 L 930.5412354700769 104.67340539620987 L 930.506262195625 104.55838171683074 L 930.4738350906252 104.44320569285864 L 930.4439573977611 104.3278888418 L 930.416632104777 104.21244269524384 L 930.3918619441795 104.09687879770858 L 930.3696493929639 103.9812087054877 L 930.3499966723668 103.86544398549403 L 930.3329057476442 103.74959621410306 L 930.3183783278739 103.63367697599544 L 930.306415865786 103.51769786299836 L 930.2970195576166 103.40167047292647 L 930.2901903429889 103.28560640842208 L 930.2859289048185 103.16951727579495 L 930.2842356692457 103.05341468386156" stroke-miterlimit="10" stroke-width="2.990598758" stroke-dasharray=""/></g><g><g/><text fill="black" stroke="none" font-family="sans-serif" font-size="11pt" font-style="normal" font-weight="normal" text-decoration="normal" x="937.2280184473191" y="133.521438666" text-anchor="start" dominant-baseline="alphabetic" xml:space="preserve">Redis</text></g></g><g><g><g><rect fill="white" stroke="none" x="94.73061775047786" y="173.982480686" width="130.7821201155078" height="22.86928462"/></g><text fill="black" stroke="none" font-family="sans-serif" font-size="11pt" font-style="normal" font-weight="normal" text-decoration="normal" x="97.36938136047786" y="189.81506234600002" text-anchor="start" dominant-baseline="alphabetic" xml:space="preserve">yang-patch request</text></g><g><path fill="none" stroke="black" paint-order="fill stroke markers" d=" M 68.20862670214453 196.851765306 L 237.55084865498566 196.851765306" stroke-miterlimit="10" stroke-width="1.4659797833333332" stroke-dasharray=""/><g transform="translate(252.034728914319,196.851765306) translate(-252.034728914319,-196.851765306)"><path fill="black" stroke="none" paint-order="stroke fill markers" d=" M 237.37493108098568 189.52186638933333 L 252.034728914319 196.851765306 L 237.37493108098568 204.18166422266668 Z"/></g></g><g><g><rect fill="white" stroke="none" x="278.560305778082" y="223.23940140599998" width="144.06771887039062" height="22.86928462"/></g><text fill="black" stroke="none" font-family="sans-serif" font-size="11pt" font-style="normal" font-weight="normal" text-decoration="normal" x="281.199069388082" y="239.071983066" text-anchor="start" dominant-baseline="alphabetic" xml:space="preserve">Invokes Translib.Bulk</text></g><g><path fill="none" stroke="black" paint-order="fill stroke markers" d=" M 252.034728914319 246.108686026 L 434.6697212529024 246.108686026" stroke-miterlimit="10" stroke-width="1.4659797833333332" stroke-dasharray=""/><g transform="translate(449.1536015122357,246.108686026) translate(-449.1536015122357,-246.108686026)"><path fill="black" stroke="none" paint-order="stroke fill markers" d=" M 434.49380367890234 238.7787871093333 L 449.1536015122357 246.108686026 L 434.49380367890234 253.43858494266667 Z"/></g></g><g><g><rect fill="white" stroke="none" x="469.970514435569" y="272.496322126" width="177.97604406570312" height="22.86928462"/></g><text fill="black" stroke="none" font-family="sans-serif" font-size="11pt" font-style="normal" font-weight="normal" text-decoration="normal" x="472.609278045569" y="288.328903786" text-anchor="start" dominant-baseline="alphabetic" xml:space="preserve">Init(), translate(), process()</text></g><g><path fill="none" stroke="black" paint-order="fill stroke markers" d=" M 449.1536015122357 295.36560674599997 L 654.2795911652722 295.36560674599997" stroke-miterlimit="10" stroke-width="1.4659797833333332" stroke-dasharray=""/><g transform="translate(668.7634714246055,295.36560674599997) translate(-668.7634714246055,-295.36560674599997)"><path fill="black" stroke="none" paint-order="stroke fill markers" d=" M 654.1036735912722 288.0357078293333 L 668.7634714246055 295.36560674599997 L 654.1036735912722 302.6955056626666 Z"/></g></g><g><g><rect fill="white" stroke="none" x="696.2571130506857" y="321.753242846" width="70.45286596511718" height="22.86928462"/></g><text fill="black" stroke="none" font-family="sans-serif" font-size="11pt" font-style="normal" font-weight="normal" text-decoration="normal" x="698.8958766606856" y="337.585824506" text-anchor="start" dominant-baseline="alphabetic" xml:space="preserve">SetAPIS()</text></g><g><path fill="none" stroke="black" paint-order="fill stroke markers" d=" M 668.7634714246055 344.62252746599995 L 779.7197403825496 344.62252746599995" stroke-miterlimit="10" stroke-width="1.4659797833333332" stroke-dasharray=""/><g transform="translate(794.2036206418829,344.62252746599995) translate(-794.2036206418829,-344.62252746599995)"><path fill="black" stroke="none" paint-order="stroke fill markers" d=" M 779.5438228085496 337.2926285493333 L 794.2036206418829 344.62252746599995 L 779.5438228085496 351.9524263826666 Z"/></g></g><g><g><rect fill="white" stroke="none" x="815.0205335652163" y="371.01016356599996" width="120.13072241042968" height="22.86928462"/></g><text fill="black" stroke="none" font-family="sans-serif" font-size="11pt" font-style="normal" font-weight="normal" text-decoration="normal" x="817.6592971752162" y="386.842745226" text-anchor="start" dominant-baseline="alphabetic" xml:space="preserve">doCvl(), DbAPIs()</text></g><g><path fill="none" stroke="black" paint-order="fill stroke markers" d=" M 794.2036206418829 393.87944818599993 L 941.4842886396459 393.87944818599993" stroke-miterlimit="10" stroke-width="1.4659797833333332" stroke-dasharray=""/><g transform="translate(955.9681688989792,393.87944818599993) translate(-955.9681688989792,-393.87944818599993)"><path fill="black" stroke="none" paint-order="stroke fill markers" d=" M 941.3083710656459 386.5495492693333 L 955.9681688989792 393.87944818599993 L 941.3083710656459 401.2093471026666 Z"/></g></g><g><g><rect fill="white" stroke="none" x="872.4471311604311" y="420.26708428599994" width="5.27752722" height="22.86928462"/></g><text fill="black" stroke="none" font-family="sans-serif" font-size="11pt" font-style="normal" font-weight="normal" text-decoration="normal" x="875.0858947704311" y="436.09966594599996" text-anchor="start" dominant-baseline="alphabetic" xml:space="preserve"></text></g><g><path fill="none" stroke="black" paint-order="fill stroke markers" d=" M 955.9681688989792 443.1363689059999 L 808.6875009012163 443.1363689059999" stroke-miterlimit="10" stroke-width="1.4659797833333332" stroke-dasharray="7.0367029599999995"/><g transform="translate(794.2036206418829,443.1363689059999) translate(-794.2036206418829,-443.1363689059999)"><path fill="black" stroke="none" paint-order="stroke fill markers" d=" M 808.8634184752162 435.80646998933327 L 794.2036206418829 443.1363689059999 L 808.8634184752162 450.46626782266657 Z"/></g></g><g><g><rect fill="white" stroke="none" x="728.8447824232443" y="469.5240050059999" width="5.27752722" height="22.86928462"/></g><text fill="black" stroke="none" font-family="sans-serif" font-size="11pt" font-style="normal" font-weight="normal" text-decoration="normal" x="731.4835460332442" y="485.35658666599994" text-anchor="start" dominant-baseline="alphabetic" xml:space="preserve"></text></g><g><path fill="none" stroke="black" paint-order="fill stroke markers" d=" M 794.2036206418829 492.3932896259999 L 683.2473516839389 492.3932896259999" stroke-miterlimit="10" stroke-width="1.4659797833333332" stroke-dasharray="7.0367029599999995"/><g transform="translate(668.7634714246055,492.3932896259999) translate(-668.7634714246055,-492.3932896259999)"><path fill="black" stroke="none" paint-order="stroke fill markers" d=" M 683.4232692579388 485.06339070933325 L 668.7634714246055 492.3932896259999 L 683.4232692579388 499.72318854266655 Z"/></g></g><g><g><rect fill="white" stroke="none" x="556.3197728584206" y="518.7809257259999" width="5.27752722" height="22.86928462"/></g><text fill="black" stroke="none" font-family="sans-serif" font-size="11pt" font-style="normal" font-weight="normal" text-decoration="normal" x="558.9585364684206" y="534.6135073859998" text-anchor="start" dominant-baseline="alphabetic" xml:space="preserve"></text></g><g><path fill="none" stroke="black" paint-order="fill stroke markers" d=" M 668.7634714246055 541.6502103459999 L 463.637481771569 541.6502103459999" stroke-miterlimit="10" stroke-width="1.4659797833333332" stroke-dasharray="7.0367029599999995"/><g transform="translate(449.1536015122357,541.6502103459999) translate(-449.1536015122357,-541.6502103459999)"><path fill="black" stroke="none" paint-order="stroke fill markers" d=" M 463.81339934556905 534.3203114293332 L 449.1536015122357 541.6502103459999 L 463.81339934556905 548.9801092626666 Z"/></g></g><g><g><rect fill="white" stroke="none" x="272.8516418376523" y="568.0378464459999" width="155.48504675125" height="22.86928462"/></g><text fill="black" stroke="none" font-family="sans-serif" font-size="11pt" font-style="normal" font-weight="normal" text-decoration="normal" x="275.49040544765234" y="583.8704281059998" text-anchor="start" dominant-baseline="alphabetic" xml:space="preserve">Translib.BulkResponse</text></g><g><path fill="none" stroke="black" paint-order="fill stroke markers" d=" M 449.1536015122357 590.9071310659999 L 266.51860917365235 590.9071310659999" stroke-miterlimit="10" stroke-width="1.4659797833333332" stroke-dasharray="7.0367029599999995"/><g transform="translate(252.034728914319,590.9071310659999) translate(-252.034728914319,-590.9071310659999)"><path fill="black" stroke="none" paint-order="stroke fill markers" d=" M 266.69452674765233 583.5772321493332 L 252.034728914319 590.9071310659999 L 266.69452674765233 598.2370299826666 Z"/></g></g><g><g><rect fill="white" stroke="none" x="89.02553962547786" y="617.2947671659999" width="142.1922763655078" height="22.86928462"/></g><text fill="black" stroke="none" font-family="sans-serif" font-size="11pt" font-style="normal" font-weight="normal" text-decoration="normal" x="91.66430323547786" y="633.1273488259999" text-anchor="start" dominant-baseline="alphabetic" xml:space="preserve">yang-patch response</text></g><g><path fill="none" stroke="black" paint-order="fill stroke markers" d=" M 252.034728914319 640.164051786 L 82.69250696147786 640.164051786" stroke-miterlimit="10" stroke-width="1.4659797833333332" stroke-dasharray="7.0367029599999995"/><g transform="translate(68.20862670214453,640.164051786) translate(-68.20862670214453,-640.164051786)"><path fill="black" stroke="none" paint-order="stroke fill markers" d=" M 82.86842453547786 632.8341528693333 L 68.20862670214453 640.164051786 L 82.86842453547786 647.4939507026667 Z"/></g></g></g><g/><g/><g/><g/><g/><g/></g></svg>